G04 #@! TF.GenerationSoftware,KiCad,Pcbnew,(5.1.2)-1*
G04 #@! TF.CreationDate,2019-05-31T11:35:42+02:00*
G04 #@! TF.ProjectId,phasefreq,70686173-6566-4726-9571-2e6b69636164,rev?*
G04 #@! TF.SameCoordinates,Original*
G04 #@! TF.FileFunction,Copper,L4,Bot*
G04 #@! TF.FilePolarity,Positive*
%FSLAX46Y46*%
G04 Gerber Fmt 4.6, Leading zero omitted, Abs format (unit mm)*
G04 Created by KiCad (PCBNEW (5.1.2)-1) date 2019-05-31 11:35:42*
%MOMM*%
%LPD*%
G04 APERTURE LIST*
%ADD10C,0.120000*%
%ADD11C,0.150000*%
%ADD12C,0.800000*%
%ADD13C,6.400000*%
%ADD14C,0.100000*%
%ADD15C,1.700000*%
%ADD16O,1.700000X1.950000*%
%ADD17R,1.500000X5.080000*%
%ADD18R,5.080000X1.500000*%
%ADD19C,1.000000*%
%ADD20C,0.500000*%
%ADD21C,0.250000*%
%ADD22C,0.500000*%
G04 APERTURE END LIST*
D10*
X148500000Y-134000000D02*
X153500000Y-134000000D01*
X153500000Y-132000000D02*
X148500000Y-132000000D01*
X148500000Y-132000000D02*
X148500000Y-134000000D01*
X153500000Y-134000000D02*
X153500000Y-132000000D01*
D11*
X152309523Y-132785714D02*
X152309523Y-133452380D01*
X152547619Y-132404761D02*
X152785714Y-133119047D01*
X152166666Y-133119047D01*
X151833333Y-134928571D02*
X151690476Y-134976190D01*
X151642857Y-135023809D01*
X151595238Y-135119047D01*
X151595238Y-135261904D01*
X151642857Y-135357142D01*
X151690476Y-135404761D01*
X151785714Y-135452380D01*
X152166666Y-135452380D01*
X152166666Y-134452380D01*
X151833333Y-134452380D01*
X151738095Y-134500000D01*
X151690476Y-134547619D01*
X151642857Y-134642857D01*
X151642857Y-134738095D01*
X151690476Y-134833333D01*
X151738095Y-134880952D01*
X151833333Y-134928571D01*
X152166666Y-134928571D01*
X150976190Y-134452380D02*
X150785714Y-134452380D01*
X150690476Y-134500000D01*
X150595238Y-134595238D01*
X150547619Y-134785714D01*
X150547619Y-135119047D01*
X150595238Y-135309523D01*
X150690476Y-135404761D01*
X150785714Y-135452380D01*
X150976190Y-135452380D01*
X151071428Y-135404761D01*
X151166666Y-135309523D01*
X151214285Y-135119047D01*
X151214285Y-134785714D01*
X151166666Y-134595238D01*
X151071428Y-134500000D01*
X150976190Y-134452380D01*
X150261904Y-134452380D02*
X149690476Y-134452380D01*
X149976190Y-135452380D02*
X149976190Y-134452380D01*
D12*
X242697056Y-75802944D03*
X241000000Y-75100000D03*
X239302944Y-75802944D03*
X238600000Y-77500000D03*
X239302944Y-79197056D03*
X241000000Y-79900000D03*
X242697056Y-79197056D03*
X243400000Y-77500000D03*
D13*
X241000000Y-77500000D03*
D12*
X142697056Y-130802944D03*
X141000000Y-130100000D03*
X139302944Y-130802944D03*
X138600000Y-132500000D03*
X139302944Y-134197056D03*
X141000000Y-134900000D03*
X142697056Y-134197056D03*
X143400000Y-132500000D03*
D13*
X141000000Y-132500000D03*
D14*
G36*
X238124504Y-130526204D02*
G01*
X238148773Y-130529804D01*
X238172571Y-130535765D01*
X238195671Y-130544030D01*
X238217849Y-130554520D01*
X238238893Y-130567133D01*
X238258598Y-130581747D01*
X238276777Y-130598223D01*
X238293253Y-130616402D01*
X238307867Y-130636107D01*
X238320480Y-130657151D01*
X238330970Y-130679329D01*
X238339235Y-130702429D01*
X238345196Y-130726227D01*
X238348796Y-130750496D01*
X238350000Y-130775000D01*
X238350000Y-132225000D01*
X238348796Y-132249504D01*
X238345196Y-132273773D01*
X238339235Y-132297571D01*
X238330970Y-132320671D01*
X238320480Y-132342849D01*
X238307867Y-132363893D01*
X238293253Y-132383598D01*
X238276777Y-132401777D01*
X238258598Y-132418253D01*
X238238893Y-132432867D01*
X238217849Y-132445480D01*
X238195671Y-132455970D01*
X238172571Y-132464235D01*
X238148773Y-132470196D01*
X238124504Y-132473796D01*
X238100000Y-132475000D01*
X236900000Y-132475000D01*
X236875496Y-132473796D01*
X236851227Y-132470196D01*
X236827429Y-132464235D01*
X236804329Y-132455970D01*
X236782151Y-132445480D01*
X236761107Y-132432867D01*
X236741402Y-132418253D01*
X236723223Y-132401777D01*
X236706747Y-132383598D01*
X236692133Y-132363893D01*
X236679520Y-132342849D01*
X236669030Y-132320671D01*
X236660765Y-132297571D01*
X236654804Y-132273773D01*
X236651204Y-132249504D01*
X236650000Y-132225000D01*
X236650000Y-130775000D01*
X236651204Y-130750496D01*
X236654804Y-130726227D01*
X236660765Y-130702429D01*
X236669030Y-130679329D01*
X236679520Y-130657151D01*
X236692133Y-130636107D01*
X236706747Y-130616402D01*
X236723223Y-130598223D01*
X236741402Y-130581747D01*
X236761107Y-130567133D01*
X236782151Y-130554520D01*
X236804329Y-130544030D01*
X236827429Y-130535765D01*
X236851227Y-130529804D01*
X236875496Y-130526204D01*
X236900000Y-130525000D01*
X238100000Y-130525000D01*
X238124504Y-130526204D01*
X238124504Y-130526204D01*
G37*
D15*
X237500000Y-131500000D03*
D16*
X235000000Y-131500000D03*
X232500000Y-131500000D03*
D17*
X202250000Y-75500000D03*
X193750000Y-75500000D03*
X163750000Y-75500000D03*
X172250000Y-75500000D03*
D18*
X139000000Y-110750000D03*
X139000000Y-119250000D03*
D19*
X204500000Y-103500000D03*
X203000000Y-103500000D03*
X203000000Y-102000000D03*
X204500000Y-102000000D03*
D20*
X176787500Y-94212500D03*
X175731250Y-94731250D03*
X156212500Y-109287500D03*
X155712500Y-108287500D03*
X144712500Y-86787500D03*
X143750000Y-87250000D03*
X157500000Y-99500000D03*
X153500000Y-86000000D03*
D19*
X204500000Y-84500000D03*
X203000000Y-84500000D03*
X204500000Y-86000000D03*
X203000000Y-86000000D03*
D20*
X189768750Y-94231250D03*
X190518750Y-94981250D03*
X154143750Y-92143750D03*
X154893750Y-91393750D03*
X150856250Y-118643750D03*
X151606250Y-119393750D03*
D19*
X195000000Y-126000000D03*
X195000000Y-127500000D03*
X193500000Y-126000000D03*
X193500000Y-127500000D03*
D20*
X182787500Y-113212500D03*
X182787500Y-112212500D03*
X174927500Y-123072500D03*
X173927500Y-123072500D03*
X189212500Y-115825000D03*
X189768750Y-115268750D03*
X184787500Y-130712500D03*
X184787500Y-129712500D03*
X152500000Y-88000000D03*
X163850000Y-94150000D03*
X202150000Y-91850000D03*
X164150000Y-91850000D03*
X150287500Y-90000000D03*
X195500000Y-89500000D03*
X157500000Y-102500000D03*
X191500000Y-121000000D03*
X191500000Y-126000000D03*
X188500000Y-112000000D03*
X184500000Y-109500000D03*
D19*
X195000000Y-133500000D03*
X230500000Y-115500000D03*
X229000000Y-115500000D03*
X232000000Y-114000000D03*
X230500000Y-114000000D03*
X229000000Y-114000000D03*
X229000000Y-117000000D03*
X230500000Y-117000000D03*
X232000000Y-117000000D03*
X232000000Y-115500000D03*
D20*
X146000000Y-93000000D03*
X153000000Y-78000000D03*
X153000000Y-95000000D03*
X153000000Y-96000000D03*
X152000000Y-95000000D03*
X157000000Y-97000000D03*
X157000000Y-98000000D03*
X156000000Y-97000000D03*
X156000000Y-87500000D03*
X155000000Y-87500000D03*
X156000000Y-86500000D03*
X144000000Y-91500000D03*
X143000000Y-91500000D03*
X143000000Y-92500000D03*
X142000000Y-82000000D03*
X143000000Y-82000000D03*
X142000000Y-81000000D03*
X147000000Y-84000000D03*
X146000000Y-84000000D03*
X146000000Y-83000000D03*
X152000000Y-78000000D03*
X149000000Y-110000000D03*
X146000000Y-120500000D03*
X146000000Y-121500000D03*
X145000000Y-121500000D03*
X148000000Y-117500000D03*
X147000000Y-117500000D03*
X148000000Y-116500000D03*
X155500000Y-119500000D03*
X155500000Y-120500000D03*
X156500000Y-120500000D03*
X151500000Y-108500000D03*
X151500000Y-107500000D03*
X150500000Y-107500000D03*
X161000000Y-106500000D03*
X161000000Y-107500000D03*
X162000000Y-106500000D03*
X160000000Y-110500000D03*
X159000000Y-110500000D03*
X159000000Y-111500000D03*
X188000000Y-98000000D03*
X188000000Y-97000000D03*
X187000000Y-98000000D03*
X194037500Y-99537500D03*
X194037500Y-100462500D03*
X197000000Y-99000000D03*
X196000000Y-99000000D03*
X196000000Y-100000000D03*
X178000000Y-98000000D03*
X179000000Y-98000000D03*
X178000000Y-97000000D03*
X195000000Y-100500000D03*
X172000000Y-100500000D03*
X171000000Y-100500000D03*
X172037500Y-99537500D03*
X169000000Y-100000000D03*
X169000000Y-99000000D03*
X168000000Y-99000000D03*
X171000000Y-127500000D03*
X172000000Y-127500000D03*
X172000000Y-128500000D03*
X172000000Y-118500000D03*
X171000000Y-118500000D03*
X172000000Y-117500000D03*
X176500000Y-119500000D03*
X175500000Y-119500000D03*
X175500000Y-118500000D03*
X181000000Y-113500000D03*
X180000000Y-114500000D03*
X181500000Y-109500000D03*
X182500000Y-108500000D03*
X182000000Y-132000000D03*
X183000000Y-133000000D03*
X183000000Y-134000000D03*
X181500000Y-129000000D03*
X182500000Y-129000000D03*
X182500000Y-130000000D03*
X191000000Y-116500000D03*
X192000000Y-117500000D03*
X191995000Y-118995000D03*
X191000000Y-120000000D03*
X191000000Y-109500000D03*
X193000000Y-110500000D03*
X189000000Y-110500000D03*
X180000000Y-113500000D03*
X182500000Y-107500000D03*
X153500000Y-101000000D03*
X185000000Y-79500000D03*
X177000000Y-80000000D03*
X178000000Y-89000000D03*
X188000000Y-89000000D03*
X193000000Y-91000000D03*
X174000000Y-91000000D03*
X143500000Y-111000000D03*
X142500000Y-110000000D03*
X142500000Y-112000000D03*
X142500000Y-118000000D03*
X143500000Y-119000000D03*
X142500000Y-120000000D03*
X142500000Y-119000000D03*
X142500000Y-111000000D03*
X171000000Y-79500000D03*
X172000000Y-79500000D03*
X173000000Y-79500000D03*
X172000000Y-80500000D03*
X164000000Y-79500000D03*
X165000000Y-79500000D03*
X164000000Y-80500000D03*
X163000000Y-79500000D03*
X203000000Y-79500000D03*
X202000000Y-80500000D03*
X201000000Y-79500000D03*
X193000000Y-79500000D03*
X194000000Y-79500000D03*
X195000000Y-79500000D03*
X194000000Y-80500000D03*
D19*
X222500000Y-107000000D03*
X224000000Y-107000000D03*
X224000000Y-108500000D03*
X223500000Y-110500000D03*
X223500000Y-112000000D03*
X222000000Y-112000000D03*
X228000000Y-127500000D03*
X226500000Y-127500000D03*
X226500000Y-126000000D03*
X228500000Y-93000000D03*
X230000000Y-93000000D03*
X230000000Y-94500000D03*
X222500000Y-91500000D03*
X213500000Y-87500000D03*
X214000000Y-95000000D03*
X214000000Y-93500000D03*
X215500000Y-91500000D03*
X215500000Y-97000000D03*
D20*
X204500000Y-96500000D03*
X204500000Y-93500000D03*
X204500000Y-92500000D03*
X204500000Y-89500000D03*
X161000000Y-96000000D03*
X161000000Y-94000000D03*
X161000000Y-92000000D03*
X161000000Y-90000000D03*
D19*
X222500000Y-97000000D03*
X213500000Y-101000000D03*
X213000000Y-115500000D03*
X205500000Y-114500000D03*
X207000000Y-116000000D03*
X205500000Y-125500000D03*
X207000000Y-127000000D03*
X213000000Y-126500000D03*
X204000000Y-120000000D03*
X204000000Y-131000000D03*
D20*
X162500000Y-118000000D03*
X163500000Y-117000000D03*
X164500000Y-118000000D03*
X159500000Y-114000000D03*
X160500000Y-113000000D03*
X161500000Y-114000000D03*
X202000000Y-79500000D03*
D21*
X163600001Y-93900001D02*
X163850000Y-94150000D01*
X163124999Y-93424999D02*
X163600001Y-93900001D01*
X157924999Y-93424999D02*
X163124999Y-93424999D01*
X152500000Y-88000000D02*
X157924999Y-93424999D01*
X166150000Y-91850000D02*
X202150000Y-91850000D01*
X163850000Y-94150000D02*
X166150000Y-91850000D01*
X163900001Y-91600001D02*
X164150000Y-91850000D01*
X157724999Y-85424999D02*
X163900001Y-91600001D01*
X153223999Y-85424999D02*
X157724999Y-85424999D01*
X150537499Y-88111499D02*
X153223999Y-85424999D01*
X150537499Y-89750001D02*
X150537499Y-88111499D01*
X150287500Y-90000000D02*
X150537499Y-89750001D01*
X164399999Y-91600001D02*
X164150000Y-91850000D01*
X166000000Y-90000000D02*
X164399999Y-91600001D01*
X195000000Y-90000000D02*
X166000000Y-90000000D01*
X195500000Y-89500000D02*
X195000000Y-90000000D01*
X150287500Y-95287500D02*
X157500000Y-102500000D01*
X150287500Y-90000000D02*
X150287500Y-95287500D01*
D22*
X191500000Y-122500000D02*
X191500000Y-126000000D01*
X188500000Y-112000000D02*
X192700001Y-116200001D01*
X191500000Y-130000000D02*
X193500000Y-132000000D01*
X191500000Y-126000000D02*
X191500000Y-130000000D01*
X193500000Y-132000000D02*
X195000000Y-133500000D01*
X187000000Y-112000000D02*
X184500000Y-109500000D01*
X188500000Y-112000000D02*
X187000000Y-112000000D01*
X192700001Y-119799999D02*
X191500000Y-121000000D01*
X192700001Y-116200001D02*
X192700001Y-119799999D01*
X191500000Y-122500000D02*
X191500000Y-121000000D01*
X172000000Y-75750000D02*
X172250000Y-75500000D01*
X172000000Y-79500000D02*
X172000000Y-75750000D01*
X164000000Y-75750000D02*
X163750000Y-75500000D01*
X164000000Y-79500000D02*
X164000000Y-75750000D01*
X164000000Y-79500000D02*
X163000000Y-79500000D01*
X164000000Y-79500000D02*
X165000000Y-79500000D01*
X164000000Y-79500000D02*
X164000000Y-80500000D01*
X172000000Y-79500000D02*
X171000000Y-79500000D01*
X172000000Y-79500000D02*
X173000000Y-79500000D01*
X172000000Y-79500000D02*
X172000000Y-80500000D01*
X202000000Y-75750000D02*
X202250000Y-75500000D01*
X202000000Y-79500000D02*
X202000000Y-75750000D01*
X201000000Y-79500000D02*
X202000000Y-79500000D01*
X202000000Y-79500000D02*
X203000000Y-79500000D01*
X202000000Y-79500000D02*
X202000000Y-80500000D01*
X193000000Y-79500000D02*
X194000000Y-79500000D01*
X195000000Y-79500000D02*
X194000000Y-79500000D01*
X194000000Y-80500000D02*
X194000000Y-79500000D01*
X194000000Y-75750000D02*
X193750000Y-75500000D01*
X194000000Y-79500000D02*
X194000000Y-75750000D01*
X142250000Y-119250000D02*
X142500000Y-119000000D01*
X139000000Y-119250000D02*
X142250000Y-119250000D01*
X142500000Y-119000000D02*
X143500000Y-119000000D01*
X142500000Y-119000000D02*
X142500000Y-120000000D01*
X142500000Y-119000000D02*
X142500000Y-118000000D01*
X142250000Y-110750000D02*
X142500000Y-111000000D01*
X139000000Y-110750000D02*
X142250000Y-110750000D01*
X142500000Y-110000000D02*
X142500000Y-111000000D01*
X143500000Y-111000000D02*
X142500000Y-111000000D01*
X142500000Y-112000000D02*
X142500000Y-111000000D01*
M02*
