M48
; DRILL file {KiCad (5.1.2)-1} date 05/31/19 11:36:22
; FORMAT={-:-/ absolute / inch / decimal}
; #@! TF.CreationDate,2019-05-31T11:36:22+02:00
; #@! TF.GenerationSoftware,Kicad,Pcbnew,(5.1.2)-1
; #@! TF.FileFunction,Plated,1,4,PTH
FMAT,2
INCH
T1C0.0098
T2C0.0197
T3C0.0374
T4C0.1260
%
G90
G05
T1
X5.5906Y-3.189
X5.5906Y-3.2283
X5.6102Y-4.3307
X5.6102Y-4.3701
X5.6102Y-4.4094
X5.6102Y-4.6457
X5.6102Y-4.685
X5.6102Y-4.7244
X5.6299Y-3.2283
X5.6299Y-3.6024
X5.6299Y-3.6417
X5.6496Y-4.3701
X5.6496Y-4.685
X5.6594Y-3.435
X5.6693Y-3.6024
X5.6973Y-3.4168
X5.7087Y-4.7835
X5.748Y-3.2677
X5.748Y-3.3071
X5.748Y-3.6614
X5.748Y-4.7441
X5.748Y-4.7835
X5.7874Y-3.3071
X5.7874Y-4.626
X5.8268Y-4.5866
X5.8268Y-4.626
X5.8661Y-4.3307
X5.9168Y-3.5433
X5.9252Y-4.2323
X5.9392Y-4.671
X5.9646Y-4.2323
X5.9646Y-4.2717
X5.9688Y-4.7005
X5.9843Y-3.0709
X5.9843Y-3.7402
X6.0039Y-3.4646
X6.0236Y-3.0709
X6.0236Y-3.7402
X6.0236Y-3.7795
X6.0433Y-3.3858
X6.0433Y-3.9764
X6.0687Y-3.6277
X6.0982Y-3.5982
X6.1024Y-3.4449
X6.122Y-4.7047
X6.122Y-4.7441
X6.1304Y-4.2633
X6.1417Y-3.4055
X6.1417Y-3.4449
X6.1417Y-3.8189
X6.1501Y-4.3027
X6.1614Y-4.7441
X6.1811Y-3.8189
X6.1811Y-3.8583
X6.2008Y-3.9173
X6.2008Y-4.0354
X6.2598Y-4.3504
X6.2598Y-4.3898
X6.2795Y-4.4882
X6.2992Y-4.3504
X6.3189Y-4.4488
X6.3386Y-3.5433
X6.3386Y-3.622
X6.3386Y-3.7008
X6.3386Y-3.7795
X6.3386Y-4.1929
X6.3386Y-4.2323
X6.3583Y-4.4882
X6.378Y-4.1929
X6.3976Y-4.6457
X6.4173Y-3.1299
X6.437Y-4.6063
X6.4508Y-3.7067
X6.4567Y-3.1299
X6.4567Y-3.1693
X6.4626Y-3.6161
X6.4764Y-4.6457
X6.4961Y-3.1299
X6.6142Y-3.8976
X6.6535Y-3.8976
X6.6535Y-3.937
X6.7323Y-3.1299
X6.7323Y-3.9567
X6.7323Y-4.6654
X6.7323Y-5.0197
X6.7717Y-3.1299
X6.7717Y-3.1693
X6.7717Y-3.9567
X6.7717Y-4.626
X6.7717Y-4.6654
X6.7717Y-5.0197
X6.7717Y-5.0591
X6.7731Y-3.9188
X6.811Y-3.1299
X6.8475Y-4.8454
X6.8504Y-3.5827
X6.8869Y-4.8454
X6.9094Y-4.6654
X6.9094Y-4.7047
X6.9186Y-3.7296
X6.9488Y-4.7047
X6.9601Y-3.7092
X6.9685Y-3.1496
X7.0079Y-3.5039
X7.0079Y-3.8189
X7.0079Y-3.8583
X7.0472Y-3.8583
X7.0866Y-4.4685
X7.0866Y-4.5079
X7.126Y-4.4685
X7.1457Y-4.311
X7.1457Y-5.0787
X7.1654Y-5.1969
X7.185Y-4.2323
X7.185Y-4.2717
X7.185Y-5.0787
X7.185Y-5.1181
X7.1964Y-4.4178
X7.1964Y-4.4572
X7.2047Y-5.2362
X7.2047Y-5.2756
X7.2638Y-4.311
X7.2751Y-5.1068
X7.2751Y-5.1462
X7.2835Y-3.1299
X7.3622Y-3.8583
X7.4016Y-3.5039
X7.4016Y-3.8189
X7.4016Y-3.8583
X7.4213Y-4.4094
X7.4409Y-4.3504
X7.4493Y-4.56
X7.4712Y-3.7099
X7.4712Y-4.5381
X7.5007Y-3.7394
X7.5197Y-4.311
X7.5197Y-4.5866
X7.5197Y-4.7244
X7.5394Y-4.7638
X7.5394Y-4.9606
X7.5589Y-4.6848
X7.5591Y-4.626
X7.5984Y-3.1299
X7.5984Y-3.5827
X7.5984Y-4.3504
X7.6378Y-3.1299
X7.6378Y-3.1693
X7.6393Y-3.9188
X7.6393Y-3.9552
X7.6772Y-3.1299
X7.6772Y-3.9567
X7.6969Y-3.5236
X7.7165Y-3.8976
X7.7165Y-3.937
X7.7559Y-3.8976
X7.9134Y-3.1299
X7.9528Y-3.1299
X7.9528Y-3.1693
X7.9587Y-3.6161
X7.9921Y-3.1299
X8.0512Y-3.5236
X8.0512Y-3.6417
X8.0512Y-3.6811
X8.0512Y-3.7992
T2
X7.6181Y-4.9606
X7.6181Y-5.0197
X7.6772Y-4.9606
X7.6772Y-5.0197
X7.6772Y-5.2559
X7.9921Y-3.3268
X7.9921Y-3.3858
X7.9921Y-4.0157
X7.9921Y-4.0748
X8.0315Y-4.7244
X8.0315Y-5.1575
X8.0512Y-3.3268
X8.0512Y-3.3858
X8.0512Y-4.0157
X8.0512Y-4.0748
X8.0906Y-4.5079
X8.0906Y-4.9409
X8.1496Y-4.5669
X8.1496Y-5.0
X8.3858Y-4.5472
X8.3858Y-4.9803
X8.4055Y-3.4449
X8.4055Y-3.9764
X8.4252Y-3.6811
X8.4252Y-3.7402
X8.4843Y-3.6024
X8.4843Y-3.8189
X8.7402Y-4.4094
X8.7598Y-3.6024
X8.7598Y-3.8189
X8.7598Y-4.2126
X8.7992Y-4.3504
X8.7992Y-4.4094
X8.8189Y-4.2126
X8.8189Y-4.2717
X8.9173Y-4.9606
X8.9173Y-5.0197
X8.9764Y-5.0197
X8.9961Y-3.6614
X9.0157Y-4.4882
X9.0157Y-4.5472
X9.0157Y-4.6063
X9.0551Y-3.6614
X9.0551Y-3.7205
X9.0748Y-4.4882
X9.0748Y-4.5472
X9.0748Y-4.6063
X9.1339Y-4.4882
X9.1339Y-4.5472
X9.1339Y-4.6063
X9.3937Y-3.0512
X9.4214Y-2.9844
X9.4214Y-3.118
X9.4882Y-2.9567
X9.4882Y-3.1457
X9.555Y-2.9844
X9.555Y-3.118
X9.5827Y-3.0512
X5.4567Y-5.2165
X5.4844Y-5.1497
X5.4844Y-5.2833
X5.5512Y-5.122
X5.5512Y-5.311
X5.618Y-5.1497
X5.618Y-5.2833
X5.6457Y-5.2165
T3
X9.1535Y-5.1772
X9.252Y-5.1772
X9.3504Y-5.1772
T4
X9.4882Y-3.0512
X5.5512Y-5.2165
T0
M30
