G04 #@! TF.GenerationSoftware,KiCad,Pcbnew,(5.1.2)-1*
G04 #@! TF.CreationDate,2019-05-31T11:35:42+02:00*
G04 #@! TF.ProjectId,phasefreq,70686173-6566-4726-9571-2e6b69636164,rev?*
G04 #@! TF.SameCoordinates,Original*
G04 #@! TF.FileFunction,Copper,L2,Inr*
G04 #@! TF.FilePolarity,Positive*
%FSLAX46Y46*%
G04 Gerber Fmt 4.6, Leading zero omitted, Abs format (unit mm)*
G04 Created by KiCad (PCBNEW (5.1.2)-1) date 2019-05-31 11:35:42*
%MOMM*%
%LPD*%
G04 APERTURE LIST*
%ADD10C,0.120000*%
%ADD11C,0.150000*%
%ADD12C,0.800000*%
%ADD13C,6.400000*%
%ADD14C,0.100000*%
%ADD15C,1.700000*%
%ADD16O,1.700000X1.950000*%
%ADD17C,1.000000*%
%ADD18C,0.500000*%
%ADD19C,0.254000*%
G04 APERTURE END LIST*
D10*
X153500000Y-132000000D02*
X148500000Y-132000000D01*
X153500000Y-134000000D02*
X153500000Y-132000000D01*
X148500000Y-134000000D02*
X153500000Y-134000000D01*
X148500000Y-132000000D02*
X148500000Y-134000000D01*
D11*
X150214285Y-132547619D02*
X150261904Y-132500000D01*
X150357142Y-132452380D01*
X150595238Y-132452380D01*
X150690476Y-132500000D01*
X150738095Y-132547619D01*
X150785714Y-132642857D01*
X150785714Y-132738095D01*
X150738095Y-132880952D01*
X150166666Y-133452380D01*
X150785714Y-133452380D01*
D12*
X242697056Y-75802944D03*
X241000000Y-75100000D03*
X239302944Y-75802944D03*
X238600000Y-77500000D03*
X239302944Y-79197056D03*
X241000000Y-79900000D03*
X242697056Y-79197056D03*
X243400000Y-77500000D03*
D13*
X241000000Y-77500000D03*
D12*
X142697056Y-130802944D03*
X141000000Y-130100000D03*
X139302944Y-130802944D03*
X138600000Y-132500000D03*
X139302944Y-134197056D03*
X141000000Y-134900000D03*
X142697056Y-134197056D03*
X143400000Y-132500000D03*
D13*
X141000000Y-132500000D03*
D14*
G36*
X238124504Y-130526204D02*
G01*
X238148773Y-130529804D01*
X238172571Y-130535765D01*
X238195671Y-130544030D01*
X238217849Y-130554520D01*
X238238893Y-130567133D01*
X238258598Y-130581747D01*
X238276777Y-130598223D01*
X238293253Y-130616402D01*
X238307867Y-130636107D01*
X238320480Y-130657151D01*
X238330970Y-130679329D01*
X238339235Y-130702429D01*
X238345196Y-130726227D01*
X238348796Y-130750496D01*
X238350000Y-130775000D01*
X238350000Y-132225000D01*
X238348796Y-132249504D01*
X238345196Y-132273773D01*
X238339235Y-132297571D01*
X238330970Y-132320671D01*
X238320480Y-132342849D01*
X238307867Y-132363893D01*
X238293253Y-132383598D01*
X238276777Y-132401777D01*
X238258598Y-132418253D01*
X238238893Y-132432867D01*
X238217849Y-132445480D01*
X238195671Y-132455970D01*
X238172571Y-132464235D01*
X238148773Y-132470196D01*
X238124504Y-132473796D01*
X238100000Y-132475000D01*
X236900000Y-132475000D01*
X236875496Y-132473796D01*
X236851227Y-132470196D01*
X236827429Y-132464235D01*
X236804329Y-132455970D01*
X236782151Y-132445480D01*
X236761107Y-132432867D01*
X236741402Y-132418253D01*
X236723223Y-132401777D01*
X236706747Y-132383598D01*
X236692133Y-132363893D01*
X236679520Y-132342849D01*
X236669030Y-132320671D01*
X236660765Y-132297571D01*
X236654804Y-132273773D01*
X236651204Y-132249504D01*
X236650000Y-132225000D01*
X236650000Y-130775000D01*
X236651204Y-130750496D01*
X236654804Y-130726227D01*
X236660765Y-130702429D01*
X236669030Y-130679329D01*
X236679520Y-130657151D01*
X236692133Y-130636107D01*
X236706747Y-130616402D01*
X236723223Y-130598223D01*
X236741402Y-130581747D01*
X236761107Y-130567133D01*
X236782151Y-130554520D01*
X236804329Y-130544030D01*
X236827429Y-130535765D01*
X236851227Y-130529804D01*
X236875496Y-130526204D01*
X236900000Y-130525000D01*
X238100000Y-130525000D01*
X238124504Y-130526204D01*
X238124504Y-130526204D01*
G37*
D15*
X237500000Y-131500000D03*
D16*
X235000000Y-131500000D03*
X232500000Y-131500000D03*
D17*
X204500000Y-103500000D03*
X203000000Y-103500000D03*
X203000000Y-102000000D03*
X204500000Y-102000000D03*
D18*
X176787500Y-94212500D03*
X175731250Y-94731250D03*
X156212500Y-109287500D03*
X155712500Y-108287500D03*
X144712500Y-86787500D03*
X143750000Y-87250000D03*
X157500000Y-99500000D03*
X153500000Y-86000000D03*
D17*
X204500000Y-84500000D03*
X203000000Y-84500000D03*
X204500000Y-86000000D03*
X203000000Y-86000000D03*
D18*
X189768750Y-94231250D03*
X190518750Y-94981250D03*
X154143750Y-92143750D03*
X154893750Y-91393750D03*
X150856250Y-118643750D03*
X151606250Y-119393750D03*
D17*
X195000000Y-126000000D03*
X195000000Y-127500000D03*
X193500000Y-126000000D03*
X193500000Y-127500000D03*
D18*
X182787500Y-113212500D03*
X182787500Y-112212500D03*
X174927500Y-123072500D03*
X173927500Y-123072500D03*
X189212500Y-115825000D03*
X189768750Y-115268750D03*
X184787500Y-130712500D03*
X184787500Y-129712500D03*
X152500000Y-88000000D03*
X163850000Y-94150000D03*
X202150000Y-91850000D03*
X164150000Y-91850000D03*
X150287500Y-90000000D03*
X195500000Y-89500000D03*
X157500000Y-102500000D03*
X191500000Y-121000000D03*
X191500000Y-126000000D03*
X188500000Y-112000000D03*
X184500000Y-109500000D03*
D17*
X195000000Y-133500000D03*
X230500000Y-115500000D03*
X229000000Y-115500000D03*
X232000000Y-114000000D03*
X230500000Y-114000000D03*
X229000000Y-114000000D03*
X229000000Y-117000000D03*
X230500000Y-117000000D03*
X232000000Y-117000000D03*
X232000000Y-115500000D03*
D18*
X146000000Y-93000000D03*
X153000000Y-78000000D03*
X153000000Y-95000000D03*
X153000000Y-96000000D03*
X152000000Y-95000000D03*
X157000000Y-97000000D03*
X157000000Y-98000000D03*
X156000000Y-97000000D03*
X156000000Y-87500000D03*
X155000000Y-87500000D03*
X156000000Y-86500000D03*
X144000000Y-91500000D03*
X143000000Y-91500000D03*
X143000000Y-92500000D03*
X142000000Y-82000000D03*
X143000000Y-82000000D03*
X142000000Y-81000000D03*
X147000000Y-84000000D03*
X146000000Y-84000000D03*
X146000000Y-83000000D03*
X152000000Y-78000000D03*
X149000000Y-110000000D03*
X146000000Y-120500000D03*
X146000000Y-121500000D03*
X145000000Y-121500000D03*
X148000000Y-117500000D03*
X147000000Y-117500000D03*
X148000000Y-116500000D03*
X155500000Y-119500000D03*
X155500000Y-120500000D03*
X156500000Y-120500000D03*
X151500000Y-108500000D03*
X151500000Y-107500000D03*
X150500000Y-107500000D03*
X161000000Y-106500000D03*
X161000000Y-107500000D03*
X162000000Y-106500000D03*
X160000000Y-110500000D03*
X159000000Y-110500000D03*
X159000000Y-111500000D03*
X188000000Y-98000000D03*
X188000000Y-97000000D03*
X187000000Y-98000000D03*
X194037500Y-99537500D03*
X194037500Y-100462500D03*
X197000000Y-99000000D03*
X196000000Y-99000000D03*
X196000000Y-100000000D03*
X178000000Y-98000000D03*
X179000000Y-98000000D03*
X178000000Y-97000000D03*
X195000000Y-100500000D03*
X172000000Y-100500000D03*
X171000000Y-100500000D03*
X172037500Y-99537500D03*
X169000000Y-100000000D03*
X169000000Y-99000000D03*
X168000000Y-99000000D03*
X171000000Y-127500000D03*
X172000000Y-127500000D03*
X172000000Y-128500000D03*
X172000000Y-118500000D03*
X171000000Y-118500000D03*
X172000000Y-117500000D03*
X176500000Y-119500000D03*
X175500000Y-119500000D03*
X175500000Y-118500000D03*
X181000000Y-113500000D03*
X180000000Y-114500000D03*
X181500000Y-109500000D03*
X182500000Y-108500000D03*
X182000000Y-132000000D03*
X183000000Y-133000000D03*
X183000000Y-134000000D03*
X181500000Y-129000000D03*
X182500000Y-129000000D03*
X182500000Y-130000000D03*
X191000000Y-116500000D03*
X192000000Y-117500000D03*
X191995000Y-118995000D03*
X191000000Y-120000000D03*
X191000000Y-109500000D03*
X193000000Y-110500000D03*
X189000000Y-110500000D03*
X180000000Y-113500000D03*
X182500000Y-107500000D03*
X153500000Y-101000000D03*
X185000000Y-79500000D03*
X177000000Y-80000000D03*
X178000000Y-89000000D03*
X188000000Y-89000000D03*
X193000000Y-91000000D03*
X174000000Y-91000000D03*
X143500000Y-111000000D03*
X142500000Y-110000000D03*
X142500000Y-112000000D03*
X142500000Y-118000000D03*
X143500000Y-119000000D03*
X142500000Y-120000000D03*
X142500000Y-119000000D03*
X142500000Y-111000000D03*
X171000000Y-79500000D03*
X172000000Y-79500000D03*
X173000000Y-79500000D03*
X172000000Y-80500000D03*
X164000000Y-79500000D03*
X165000000Y-79500000D03*
X164000000Y-80500000D03*
X163000000Y-79500000D03*
X203000000Y-79500000D03*
X202000000Y-80500000D03*
X201000000Y-79500000D03*
X193000000Y-79500000D03*
X194000000Y-79500000D03*
X195000000Y-79500000D03*
X194000000Y-80500000D03*
D17*
X222500000Y-107000000D03*
X224000000Y-107000000D03*
X224000000Y-108500000D03*
X223500000Y-110500000D03*
X223500000Y-112000000D03*
X222000000Y-112000000D03*
X228000000Y-127500000D03*
X226500000Y-127500000D03*
X226500000Y-126000000D03*
X228500000Y-93000000D03*
X230000000Y-93000000D03*
X230000000Y-94500000D03*
X222500000Y-91500000D03*
X213500000Y-87500000D03*
X214000000Y-95000000D03*
X214000000Y-93500000D03*
X215500000Y-91500000D03*
X215500000Y-97000000D03*
D18*
X204500000Y-96500000D03*
X204500000Y-93500000D03*
X204500000Y-92500000D03*
X204500000Y-89500000D03*
X161000000Y-96000000D03*
X161000000Y-94000000D03*
X161000000Y-92000000D03*
X161000000Y-90000000D03*
D17*
X222500000Y-97000000D03*
X213500000Y-101000000D03*
X213000000Y-115500000D03*
X205500000Y-114500000D03*
X207000000Y-116000000D03*
X205500000Y-125500000D03*
X207000000Y-127000000D03*
X213000000Y-126500000D03*
X204000000Y-120000000D03*
X204000000Y-131000000D03*
D18*
X162500000Y-118000000D03*
X163500000Y-117000000D03*
X164500000Y-118000000D03*
X159500000Y-114000000D03*
X160500000Y-113000000D03*
X161500000Y-114000000D03*
X202000000Y-79500000D03*
D19*
G36*
X245185955Y-73177923D02*
G01*
X245262976Y-73237024D01*
X245322077Y-73314045D01*
X245340001Y-73357318D01*
X245340000Y-136642685D01*
X245322077Y-136685955D01*
X245262976Y-136762976D01*
X245185955Y-136822077D01*
X245142685Y-136840000D01*
X136857315Y-136840000D01*
X136814045Y-136822077D01*
X136737024Y-136762976D01*
X136677923Y-136685955D01*
X136660000Y-136642685D01*
X136660000Y-132000000D01*
X147801638Y-132000000D01*
X147805000Y-132034135D01*
X147805001Y-133965856D01*
X147801638Y-134000000D01*
X147815057Y-134136244D01*
X147854798Y-134267252D01*
X147919333Y-134387989D01*
X148006183Y-134493817D01*
X148112011Y-134580667D01*
X148232748Y-134645202D01*
X148363756Y-134684943D01*
X148465865Y-134695000D01*
X148465866Y-134695000D01*
X148500000Y-134698362D01*
X148534135Y-134695000D01*
X153465865Y-134695000D01*
X153500000Y-134698362D01*
X153534134Y-134695000D01*
X153534135Y-134695000D01*
X153636244Y-134684943D01*
X153767252Y-134645202D01*
X153887989Y-134580667D01*
X153993817Y-134493817D01*
X154080667Y-134387989D01*
X154145202Y-134267252D01*
X154184943Y-134136244D01*
X154198362Y-134000000D01*
X154195000Y-133965865D01*
X154195000Y-133388212D01*
X193865000Y-133388212D01*
X193865000Y-133611788D01*
X193908617Y-133831067D01*
X193994176Y-134037624D01*
X194118388Y-134223520D01*
X194276480Y-134381612D01*
X194462376Y-134505824D01*
X194668933Y-134591383D01*
X194888212Y-134635000D01*
X195111788Y-134635000D01*
X195331067Y-134591383D01*
X195537624Y-134505824D01*
X195723520Y-134381612D01*
X195881612Y-134223520D01*
X196005824Y-134037624D01*
X196091383Y-133831067D01*
X196135000Y-133611788D01*
X196135000Y-133388212D01*
X196091383Y-133168933D01*
X196005824Y-132962376D01*
X195881612Y-132776480D01*
X195723520Y-132618388D01*
X195537624Y-132494176D01*
X195331067Y-132408617D01*
X195111788Y-132365000D01*
X194888212Y-132365000D01*
X194668933Y-132408617D01*
X194462376Y-132494176D01*
X194276480Y-132618388D01*
X194118388Y-132776480D01*
X193994176Y-132962376D01*
X193908617Y-133168933D01*
X193865000Y-133388212D01*
X154195000Y-133388212D01*
X154195000Y-132034135D01*
X154198362Y-132000000D01*
X154184943Y-131863756D01*
X154145202Y-131732748D01*
X154080667Y-131612011D01*
X153993817Y-131506183D01*
X153887989Y-131419333D01*
X153767252Y-131354798D01*
X153636244Y-131315057D01*
X153534135Y-131305000D01*
X153500000Y-131301638D01*
X153465866Y-131305000D01*
X148534134Y-131305000D01*
X148500000Y-131301638D01*
X148465865Y-131305000D01*
X148363756Y-131315057D01*
X148232748Y-131354798D01*
X148112011Y-131419333D01*
X148006183Y-131506183D01*
X147919333Y-131612011D01*
X147854798Y-131732748D01*
X147815057Y-131863756D01*
X147801638Y-132000000D01*
X136660000Y-132000000D01*
X136660000Y-129625335D01*
X183902500Y-129625335D01*
X183902500Y-129799665D01*
X183936510Y-129970645D01*
X184003223Y-130131705D01*
X184057209Y-130212500D01*
X184003223Y-130293295D01*
X183936510Y-130454355D01*
X183902500Y-130625335D01*
X183902500Y-130799665D01*
X183936510Y-130970645D01*
X184003223Y-131131705D01*
X184100076Y-131276655D01*
X184223345Y-131399924D01*
X184368295Y-131496777D01*
X184529355Y-131563490D01*
X184700335Y-131597500D01*
X184874665Y-131597500D01*
X185045645Y-131563490D01*
X185206705Y-131496777D01*
X185351655Y-131399924D01*
X185449529Y-131302050D01*
X231015000Y-131302050D01*
X231015000Y-131697949D01*
X231036487Y-131916110D01*
X231121401Y-132196033D01*
X231259294Y-132454013D01*
X231444866Y-132680134D01*
X231670986Y-132865706D01*
X231928966Y-133003599D01*
X232208889Y-133088513D01*
X232500000Y-133117185D01*
X232791110Y-133088513D01*
X233071033Y-133003599D01*
X233329013Y-132865706D01*
X233555134Y-132680134D01*
X233740706Y-132454014D01*
X233750000Y-132436626D01*
X233759294Y-132454013D01*
X233944866Y-132680134D01*
X234170986Y-132865706D01*
X234428966Y-133003599D01*
X234708889Y-133088513D01*
X235000000Y-133117185D01*
X235291110Y-133088513D01*
X235571033Y-133003599D01*
X235829013Y-132865706D01*
X236055134Y-132680134D01*
X236107223Y-132616663D01*
X236161595Y-132718386D01*
X236272038Y-132852962D01*
X236406614Y-132963405D01*
X236560150Y-133045472D01*
X236726746Y-133096008D01*
X236900000Y-133113072D01*
X238100000Y-133113072D01*
X238273254Y-133096008D01*
X238439850Y-133045472D01*
X238593386Y-132963405D01*
X238727962Y-132852962D01*
X238838405Y-132718386D01*
X238920472Y-132564850D01*
X238971008Y-132398254D01*
X238988072Y-132225000D01*
X238988072Y-130775000D01*
X238971008Y-130601746D01*
X238920472Y-130435150D01*
X238838405Y-130281614D01*
X238727962Y-130147038D01*
X238593386Y-130036595D01*
X238439850Y-129954528D01*
X238273254Y-129903992D01*
X238100000Y-129886928D01*
X236900000Y-129886928D01*
X236726746Y-129903992D01*
X236560150Y-129954528D01*
X236406614Y-130036595D01*
X236272038Y-130147038D01*
X236161595Y-130281614D01*
X236107223Y-130383337D01*
X236055134Y-130319866D01*
X235829014Y-130134294D01*
X235571034Y-129996401D01*
X235291111Y-129911487D01*
X235000000Y-129882815D01*
X234708890Y-129911487D01*
X234428967Y-129996401D01*
X234170987Y-130134294D01*
X233944866Y-130319866D01*
X233759294Y-130545986D01*
X233750000Y-130563374D01*
X233740706Y-130545986D01*
X233555134Y-130319866D01*
X233329014Y-130134294D01*
X233071034Y-129996401D01*
X232791111Y-129911487D01*
X232500000Y-129882815D01*
X232208890Y-129911487D01*
X231928967Y-129996401D01*
X231670987Y-130134294D01*
X231444866Y-130319866D01*
X231259294Y-130545986D01*
X231121401Y-130803966D01*
X231036487Y-131083889D01*
X231015000Y-131302050D01*
X185449529Y-131302050D01*
X185474924Y-131276655D01*
X185571777Y-131131705D01*
X185638490Y-130970645D01*
X185672500Y-130799665D01*
X185672500Y-130625335D01*
X185638490Y-130454355D01*
X185571777Y-130293295D01*
X185517791Y-130212500D01*
X185571777Y-130131705D01*
X185638490Y-129970645D01*
X185672500Y-129799665D01*
X185672500Y-129625335D01*
X185638490Y-129454355D01*
X185571777Y-129293295D01*
X185474924Y-129148345D01*
X185351655Y-129025076D01*
X185206705Y-128928223D01*
X185045645Y-128861510D01*
X184874665Y-128827500D01*
X184700335Y-128827500D01*
X184529355Y-128861510D01*
X184368295Y-128928223D01*
X184223345Y-129025076D01*
X184100076Y-129148345D01*
X184003223Y-129293295D01*
X183936510Y-129454355D01*
X183902500Y-129625335D01*
X136660000Y-129625335D01*
X136660000Y-125912835D01*
X190615000Y-125912835D01*
X190615000Y-126087165D01*
X190649010Y-126258145D01*
X190715723Y-126419205D01*
X190812576Y-126564155D01*
X190935845Y-126687424D01*
X191080795Y-126784277D01*
X191241855Y-126850990D01*
X191412835Y-126885000D01*
X191587165Y-126885000D01*
X191758145Y-126850990D01*
X191919205Y-126784277D01*
X192064155Y-126687424D01*
X192187424Y-126564155D01*
X192284277Y-126419205D01*
X192350990Y-126258145D01*
X192372551Y-126149750D01*
X192408617Y-126331067D01*
X192494176Y-126537624D01*
X192618388Y-126723520D01*
X192644868Y-126750000D01*
X192618388Y-126776480D01*
X192494176Y-126962376D01*
X192408617Y-127168933D01*
X192365000Y-127388212D01*
X192365000Y-127611788D01*
X192408617Y-127831067D01*
X192494176Y-128037624D01*
X192618388Y-128223520D01*
X192776480Y-128381612D01*
X192962376Y-128505824D01*
X193168933Y-128591383D01*
X193388212Y-128635000D01*
X193611788Y-128635000D01*
X193831067Y-128591383D01*
X194037624Y-128505824D01*
X194223520Y-128381612D01*
X194250000Y-128355132D01*
X194276480Y-128381612D01*
X194462376Y-128505824D01*
X194668933Y-128591383D01*
X194888212Y-128635000D01*
X195111788Y-128635000D01*
X195331067Y-128591383D01*
X195537624Y-128505824D01*
X195723520Y-128381612D01*
X195881612Y-128223520D01*
X196005824Y-128037624D01*
X196091383Y-127831067D01*
X196135000Y-127611788D01*
X196135000Y-127388212D01*
X196091383Y-127168933D01*
X196005824Y-126962376D01*
X195881612Y-126776480D01*
X195855132Y-126750000D01*
X195881612Y-126723520D01*
X196005824Y-126537624D01*
X196091383Y-126331067D01*
X196135000Y-126111788D01*
X196135000Y-125888212D01*
X196091383Y-125668933D01*
X196005824Y-125462376D01*
X195881612Y-125276480D01*
X195723520Y-125118388D01*
X195537624Y-124994176D01*
X195331067Y-124908617D01*
X195111788Y-124865000D01*
X194888212Y-124865000D01*
X194668933Y-124908617D01*
X194462376Y-124994176D01*
X194276480Y-125118388D01*
X194250000Y-125144868D01*
X194223520Y-125118388D01*
X194037624Y-124994176D01*
X193831067Y-124908617D01*
X193611788Y-124865000D01*
X193388212Y-124865000D01*
X193168933Y-124908617D01*
X192962376Y-124994176D01*
X192776480Y-125118388D01*
X192618388Y-125276480D01*
X192494176Y-125462376D01*
X192408617Y-125668933D01*
X192372551Y-125850250D01*
X192350990Y-125741855D01*
X192284277Y-125580795D01*
X192187424Y-125435845D01*
X192064155Y-125312576D01*
X191919205Y-125215723D01*
X191758145Y-125149010D01*
X191587165Y-125115000D01*
X191412835Y-125115000D01*
X191241855Y-125149010D01*
X191080795Y-125215723D01*
X190935845Y-125312576D01*
X190812576Y-125435845D01*
X190715723Y-125580795D01*
X190649010Y-125741855D01*
X190615000Y-125912835D01*
X136660000Y-125912835D01*
X136660000Y-122985335D01*
X173042500Y-122985335D01*
X173042500Y-123159665D01*
X173076510Y-123330645D01*
X173143223Y-123491705D01*
X173240076Y-123636655D01*
X173363345Y-123759924D01*
X173508295Y-123856777D01*
X173669355Y-123923490D01*
X173840335Y-123957500D01*
X174014665Y-123957500D01*
X174185645Y-123923490D01*
X174346705Y-123856777D01*
X174427500Y-123802791D01*
X174508295Y-123856777D01*
X174669355Y-123923490D01*
X174840335Y-123957500D01*
X175014665Y-123957500D01*
X175185645Y-123923490D01*
X175346705Y-123856777D01*
X175491655Y-123759924D01*
X175614924Y-123636655D01*
X175711777Y-123491705D01*
X175778490Y-123330645D01*
X175812500Y-123159665D01*
X175812500Y-122985335D01*
X175778490Y-122814355D01*
X175711777Y-122653295D01*
X175614924Y-122508345D01*
X175491655Y-122385076D01*
X175346705Y-122288223D01*
X175185645Y-122221510D01*
X175014665Y-122187500D01*
X174840335Y-122187500D01*
X174669355Y-122221510D01*
X174508295Y-122288223D01*
X174427500Y-122342209D01*
X174346705Y-122288223D01*
X174185645Y-122221510D01*
X174014665Y-122187500D01*
X173840335Y-122187500D01*
X173669355Y-122221510D01*
X173508295Y-122288223D01*
X173363345Y-122385076D01*
X173240076Y-122508345D01*
X173143223Y-122653295D01*
X173076510Y-122814355D01*
X173042500Y-122985335D01*
X136660000Y-122985335D01*
X136660000Y-120912835D01*
X190615000Y-120912835D01*
X190615000Y-121087165D01*
X190649010Y-121258145D01*
X190715723Y-121419205D01*
X190812576Y-121564155D01*
X190935845Y-121687424D01*
X191080795Y-121784277D01*
X191241855Y-121850990D01*
X191412835Y-121885000D01*
X191587165Y-121885000D01*
X191758145Y-121850990D01*
X191919205Y-121784277D01*
X192064155Y-121687424D01*
X192187424Y-121564155D01*
X192284277Y-121419205D01*
X192350990Y-121258145D01*
X192385000Y-121087165D01*
X192385000Y-120912835D01*
X192350990Y-120741855D01*
X192284277Y-120580795D01*
X192187424Y-120435845D01*
X192064155Y-120312576D01*
X191919205Y-120215723D01*
X191758145Y-120149010D01*
X191587165Y-120115000D01*
X191412835Y-120115000D01*
X191241855Y-120149010D01*
X191080795Y-120215723D01*
X190935845Y-120312576D01*
X190812576Y-120435845D01*
X190715723Y-120580795D01*
X190649010Y-120741855D01*
X190615000Y-120912835D01*
X136660000Y-120912835D01*
X136660000Y-118556585D01*
X149971250Y-118556585D01*
X149971250Y-118730915D01*
X150005260Y-118901895D01*
X150071973Y-119062955D01*
X150168826Y-119207905D01*
X150292095Y-119331174D01*
X150437045Y-119428027D01*
X150598105Y-119494740D01*
X150729186Y-119520814D01*
X150755260Y-119651895D01*
X150821973Y-119812955D01*
X150918826Y-119957905D01*
X151042095Y-120081174D01*
X151187045Y-120178027D01*
X151348105Y-120244740D01*
X151519085Y-120278750D01*
X151693415Y-120278750D01*
X151864395Y-120244740D01*
X152025455Y-120178027D01*
X152170405Y-120081174D01*
X152293674Y-119957905D01*
X152390527Y-119812955D01*
X152457240Y-119651895D01*
X152491250Y-119480915D01*
X152491250Y-119306585D01*
X152457240Y-119135605D01*
X152390527Y-118974545D01*
X152293674Y-118829595D01*
X152170405Y-118706326D01*
X152025455Y-118609473D01*
X151864395Y-118542760D01*
X151733314Y-118516686D01*
X151707240Y-118385605D01*
X151640527Y-118224545D01*
X151543674Y-118079595D01*
X151420405Y-117956326D01*
X151275455Y-117859473D01*
X151114395Y-117792760D01*
X150943415Y-117758750D01*
X150769085Y-117758750D01*
X150598105Y-117792760D01*
X150437045Y-117859473D01*
X150292095Y-117956326D01*
X150168826Y-118079595D01*
X150071973Y-118224545D01*
X150005260Y-118385605D01*
X149971250Y-118556585D01*
X136660000Y-118556585D01*
X136660000Y-115737835D01*
X188327500Y-115737835D01*
X188327500Y-115912165D01*
X188361510Y-116083145D01*
X188428223Y-116244205D01*
X188525076Y-116389155D01*
X188648345Y-116512424D01*
X188793295Y-116609277D01*
X188954355Y-116675990D01*
X189125335Y-116710000D01*
X189299665Y-116710000D01*
X189470645Y-116675990D01*
X189631705Y-116609277D01*
X189776655Y-116512424D01*
X189899924Y-116389155D01*
X189996777Y-116244205D01*
X190052772Y-116109022D01*
X190187955Y-116053027D01*
X190332905Y-115956174D01*
X190456174Y-115832905D01*
X190553027Y-115687955D01*
X190619740Y-115526895D01*
X190653750Y-115355915D01*
X190653750Y-115181585D01*
X190619740Y-115010605D01*
X190553027Y-114849545D01*
X190456174Y-114704595D01*
X190332905Y-114581326D01*
X190187955Y-114484473D01*
X190026895Y-114417760D01*
X189855915Y-114383750D01*
X189681585Y-114383750D01*
X189510605Y-114417760D01*
X189349545Y-114484473D01*
X189204595Y-114581326D01*
X189081326Y-114704595D01*
X188984473Y-114849545D01*
X188928478Y-114984728D01*
X188793295Y-115040723D01*
X188648345Y-115137576D01*
X188525076Y-115260845D01*
X188428223Y-115405795D01*
X188361510Y-115566855D01*
X188327500Y-115737835D01*
X136660000Y-115737835D01*
X136660000Y-112125335D01*
X181902500Y-112125335D01*
X181902500Y-112299665D01*
X181936510Y-112470645D01*
X182003223Y-112631705D01*
X182057209Y-112712500D01*
X182003223Y-112793295D01*
X181936510Y-112954355D01*
X181902500Y-113125335D01*
X181902500Y-113299665D01*
X181936510Y-113470645D01*
X182003223Y-113631705D01*
X182100076Y-113776655D01*
X182223345Y-113899924D01*
X182368295Y-113996777D01*
X182529355Y-114063490D01*
X182700335Y-114097500D01*
X182874665Y-114097500D01*
X183045645Y-114063490D01*
X183206705Y-113996777D01*
X183351655Y-113899924D01*
X183474924Y-113776655D01*
X183571777Y-113631705D01*
X183638490Y-113470645D01*
X183672500Y-113299665D01*
X183672500Y-113125335D01*
X183638490Y-112954355D01*
X183571777Y-112793295D01*
X183517791Y-112712500D01*
X183571777Y-112631705D01*
X183638490Y-112470645D01*
X183672500Y-112299665D01*
X183672500Y-112125335D01*
X183638490Y-111954355D01*
X183621292Y-111912835D01*
X187615000Y-111912835D01*
X187615000Y-112087165D01*
X187649010Y-112258145D01*
X187715723Y-112419205D01*
X187812576Y-112564155D01*
X187935845Y-112687424D01*
X188080795Y-112784277D01*
X188241855Y-112850990D01*
X188412835Y-112885000D01*
X188587165Y-112885000D01*
X188758145Y-112850990D01*
X188919205Y-112784277D01*
X189064155Y-112687424D01*
X189187424Y-112564155D01*
X189284277Y-112419205D01*
X189350990Y-112258145D01*
X189385000Y-112087165D01*
X189385000Y-111912835D01*
X189350990Y-111741855D01*
X189284277Y-111580795D01*
X189187424Y-111435845D01*
X189064155Y-111312576D01*
X188919205Y-111215723D01*
X188758145Y-111149010D01*
X188587165Y-111115000D01*
X188412835Y-111115000D01*
X188241855Y-111149010D01*
X188080795Y-111215723D01*
X187935845Y-111312576D01*
X187812576Y-111435845D01*
X187715723Y-111580795D01*
X187649010Y-111741855D01*
X187615000Y-111912835D01*
X183621292Y-111912835D01*
X183571777Y-111793295D01*
X183474924Y-111648345D01*
X183351655Y-111525076D01*
X183206705Y-111428223D01*
X183045645Y-111361510D01*
X182874665Y-111327500D01*
X182700335Y-111327500D01*
X182529355Y-111361510D01*
X182368295Y-111428223D01*
X182223345Y-111525076D01*
X182100076Y-111648345D01*
X182003223Y-111793295D01*
X181936510Y-111954355D01*
X181902500Y-112125335D01*
X136660000Y-112125335D01*
X136660000Y-108200335D01*
X154827500Y-108200335D01*
X154827500Y-108374665D01*
X154861510Y-108545645D01*
X154928223Y-108706705D01*
X155025076Y-108851655D01*
X155148345Y-108974924D01*
X155293295Y-109071777D01*
X155348522Y-109094652D01*
X155327500Y-109200335D01*
X155327500Y-109374665D01*
X155361510Y-109545645D01*
X155428223Y-109706705D01*
X155525076Y-109851655D01*
X155648345Y-109974924D01*
X155793295Y-110071777D01*
X155954355Y-110138490D01*
X156125335Y-110172500D01*
X156299665Y-110172500D01*
X156470645Y-110138490D01*
X156631705Y-110071777D01*
X156776655Y-109974924D01*
X156899924Y-109851655D01*
X156996777Y-109706705D01*
X157063490Y-109545645D01*
X157089907Y-109412835D01*
X183615000Y-109412835D01*
X183615000Y-109587165D01*
X183649010Y-109758145D01*
X183715723Y-109919205D01*
X183812576Y-110064155D01*
X183935845Y-110187424D01*
X184080795Y-110284277D01*
X184241855Y-110350990D01*
X184412835Y-110385000D01*
X184587165Y-110385000D01*
X184758145Y-110350990D01*
X184919205Y-110284277D01*
X185064155Y-110187424D01*
X185187424Y-110064155D01*
X185284277Y-109919205D01*
X185350990Y-109758145D01*
X185385000Y-109587165D01*
X185385000Y-109412835D01*
X185350990Y-109241855D01*
X185284277Y-109080795D01*
X185187424Y-108935845D01*
X185064155Y-108812576D01*
X184919205Y-108715723D01*
X184758145Y-108649010D01*
X184587165Y-108615000D01*
X184412835Y-108615000D01*
X184241855Y-108649010D01*
X184080795Y-108715723D01*
X183935845Y-108812576D01*
X183812576Y-108935845D01*
X183715723Y-109080795D01*
X183649010Y-109241855D01*
X183615000Y-109412835D01*
X157089907Y-109412835D01*
X157097500Y-109374665D01*
X157097500Y-109200335D01*
X157063490Y-109029355D01*
X156996777Y-108868295D01*
X156899924Y-108723345D01*
X156776655Y-108600076D01*
X156631705Y-108503223D01*
X156576478Y-108480348D01*
X156597500Y-108374665D01*
X156597500Y-108200335D01*
X156563490Y-108029355D01*
X156496777Y-107868295D01*
X156399924Y-107723345D01*
X156276655Y-107600076D01*
X156131705Y-107503223D01*
X155970645Y-107436510D01*
X155799665Y-107402500D01*
X155625335Y-107402500D01*
X155454355Y-107436510D01*
X155293295Y-107503223D01*
X155148345Y-107600076D01*
X155025076Y-107723345D01*
X154928223Y-107868295D01*
X154861510Y-108029355D01*
X154827500Y-108200335D01*
X136660000Y-108200335D01*
X136660000Y-102412835D01*
X156615000Y-102412835D01*
X156615000Y-102587165D01*
X156649010Y-102758145D01*
X156715723Y-102919205D01*
X156812576Y-103064155D01*
X156935845Y-103187424D01*
X157080795Y-103284277D01*
X157241855Y-103350990D01*
X157412835Y-103385000D01*
X157587165Y-103385000D01*
X157758145Y-103350990D01*
X157919205Y-103284277D01*
X158064155Y-103187424D01*
X158187424Y-103064155D01*
X158284277Y-102919205D01*
X158350990Y-102758145D01*
X158385000Y-102587165D01*
X158385000Y-102412835D01*
X158350990Y-102241855D01*
X158284277Y-102080795D01*
X158187424Y-101935845D01*
X158139791Y-101888212D01*
X201865000Y-101888212D01*
X201865000Y-102111788D01*
X201908617Y-102331067D01*
X201994176Y-102537624D01*
X202118388Y-102723520D01*
X202144868Y-102750000D01*
X202118388Y-102776480D01*
X201994176Y-102962376D01*
X201908617Y-103168933D01*
X201865000Y-103388212D01*
X201865000Y-103611788D01*
X201908617Y-103831067D01*
X201994176Y-104037624D01*
X202118388Y-104223520D01*
X202276480Y-104381612D01*
X202462376Y-104505824D01*
X202668933Y-104591383D01*
X202888212Y-104635000D01*
X203111788Y-104635000D01*
X203331067Y-104591383D01*
X203537624Y-104505824D01*
X203723520Y-104381612D01*
X203750000Y-104355132D01*
X203776480Y-104381612D01*
X203962376Y-104505824D01*
X204168933Y-104591383D01*
X204388212Y-104635000D01*
X204611788Y-104635000D01*
X204831067Y-104591383D01*
X205037624Y-104505824D01*
X205223520Y-104381612D01*
X205381612Y-104223520D01*
X205505824Y-104037624D01*
X205591383Y-103831067D01*
X205635000Y-103611788D01*
X205635000Y-103388212D01*
X205591383Y-103168933D01*
X205505824Y-102962376D01*
X205381612Y-102776480D01*
X205355132Y-102750000D01*
X205381612Y-102723520D01*
X205505824Y-102537624D01*
X205591383Y-102331067D01*
X205635000Y-102111788D01*
X205635000Y-101888212D01*
X205591383Y-101668933D01*
X205505824Y-101462376D01*
X205381612Y-101276480D01*
X205223520Y-101118388D01*
X205037624Y-100994176D01*
X204831067Y-100908617D01*
X204611788Y-100865000D01*
X204388212Y-100865000D01*
X204168933Y-100908617D01*
X203962376Y-100994176D01*
X203776480Y-101118388D01*
X203750000Y-101144868D01*
X203723520Y-101118388D01*
X203537624Y-100994176D01*
X203331067Y-100908617D01*
X203111788Y-100865000D01*
X202888212Y-100865000D01*
X202668933Y-100908617D01*
X202462376Y-100994176D01*
X202276480Y-101118388D01*
X202118388Y-101276480D01*
X201994176Y-101462376D01*
X201908617Y-101668933D01*
X201865000Y-101888212D01*
X158139791Y-101888212D01*
X158064155Y-101812576D01*
X157919205Y-101715723D01*
X157758145Y-101649010D01*
X157587165Y-101615000D01*
X157412835Y-101615000D01*
X157241855Y-101649010D01*
X157080795Y-101715723D01*
X156935845Y-101812576D01*
X156812576Y-101935845D01*
X156715723Y-102080795D01*
X156649010Y-102241855D01*
X156615000Y-102412835D01*
X136660000Y-102412835D01*
X136660000Y-99412835D01*
X156615000Y-99412835D01*
X156615000Y-99587165D01*
X156649010Y-99758145D01*
X156715723Y-99919205D01*
X156812576Y-100064155D01*
X156935845Y-100187424D01*
X157080795Y-100284277D01*
X157241855Y-100350990D01*
X157412835Y-100385000D01*
X157587165Y-100385000D01*
X157758145Y-100350990D01*
X157919205Y-100284277D01*
X158064155Y-100187424D01*
X158187424Y-100064155D01*
X158284277Y-99919205D01*
X158350990Y-99758145D01*
X158385000Y-99587165D01*
X158385000Y-99412835D01*
X158350990Y-99241855D01*
X158284277Y-99080795D01*
X158187424Y-98935845D01*
X158064155Y-98812576D01*
X157919205Y-98715723D01*
X157758145Y-98649010D01*
X157587165Y-98615000D01*
X157412835Y-98615000D01*
X157241855Y-98649010D01*
X157080795Y-98715723D01*
X156935845Y-98812576D01*
X156812576Y-98935845D01*
X156715723Y-99080795D01*
X156649010Y-99241855D01*
X156615000Y-99412835D01*
X136660000Y-99412835D01*
X136660000Y-94062835D01*
X162965000Y-94062835D01*
X162965000Y-94237165D01*
X162999010Y-94408145D01*
X163065723Y-94569205D01*
X163162576Y-94714155D01*
X163285845Y-94837424D01*
X163430795Y-94934277D01*
X163591855Y-95000990D01*
X163762835Y-95035000D01*
X163937165Y-95035000D01*
X164108145Y-95000990D01*
X164269205Y-94934277D01*
X164414155Y-94837424D01*
X164537424Y-94714155D01*
X164584243Y-94644085D01*
X174846250Y-94644085D01*
X174846250Y-94818415D01*
X174880260Y-94989395D01*
X174946973Y-95150455D01*
X175043826Y-95295405D01*
X175167095Y-95418674D01*
X175312045Y-95515527D01*
X175473105Y-95582240D01*
X175644085Y-95616250D01*
X175818415Y-95616250D01*
X175989395Y-95582240D01*
X176150455Y-95515527D01*
X176295405Y-95418674D01*
X176418674Y-95295405D01*
X176515527Y-95150455D01*
X176549860Y-95067569D01*
X176700335Y-95097500D01*
X176874665Y-95097500D01*
X177045645Y-95063490D01*
X177206705Y-94996777D01*
X177351655Y-94899924D01*
X177474924Y-94776655D01*
X177571777Y-94631705D01*
X177638490Y-94470645D01*
X177672500Y-94299665D01*
X177672500Y-94144085D01*
X188883750Y-94144085D01*
X188883750Y-94318415D01*
X188917760Y-94489395D01*
X188984473Y-94650455D01*
X189081326Y-94795405D01*
X189204595Y-94918674D01*
X189349545Y-95015527D01*
X189510605Y-95082240D01*
X189641686Y-95108314D01*
X189667760Y-95239395D01*
X189734473Y-95400455D01*
X189831326Y-95545405D01*
X189954595Y-95668674D01*
X190099545Y-95765527D01*
X190260605Y-95832240D01*
X190431585Y-95866250D01*
X190605915Y-95866250D01*
X190776895Y-95832240D01*
X190937955Y-95765527D01*
X191082905Y-95668674D01*
X191206174Y-95545405D01*
X191303027Y-95400455D01*
X191369740Y-95239395D01*
X191403750Y-95068415D01*
X191403750Y-94894085D01*
X191369740Y-94723105D01*
X191303027Y-94562045D01*
X191206174Y-94417095D01*
X191082905Y-94293826D01*
X190937955Y-94196973D01*
X190776895Y-94130260D01*
X190645814Y-94104186D01*
X190619740Y-93973105D01*
X190553027Y-93812045D01*
X190456174Y-93667095D01*
X190332905Y-93543826D01*
X190187955Y-93446973D01*
X190026895Y-93380260D01*
X189855915Y-93346250D01*
X189681585Y-93346250D01*
X189510605Y-93380260D01*
X189349545Y-93446973D01*
X189204595Y-93543826D01*
X189081326Y-93667095D01*
X188984473Y-93812045D01*
X188917760Y-93973105D01*
X188883750Y-94144085D01*
X177672500Y-94144085D01*
X177672500Y-94125335D01*
X177638490Y-93954355D01*
X177571777Y-93793295D01*
X177474924Y-93648345D01*
X177351655Y-93525076D01*
X177206705Y-93428223D01*
X177045645Y-93361510D01*
X176874665Y-93327500D01*
X176700335Y-93327500D01*
X176529355Y-93361510D01*
X176368295Y-93428223D01*
X176223345Y-93525076D01*
X176100076Y-93648345D01*
X176003223Y-93793295D01*
X175968890Y-93876181D01*
X175818415Y-93846250D01*
X175644085Y-93846250D01*
X175473105Y-93880260D01*
X175312045Y-93946973D01*
X175167095Y-94043826D01*
X175043826Y-94167095D01*
X174946973Y-94312045D01*
X174880260Y-94473105D01*
X174846250Y-94644085D01*
X164584243Y-94644085D01*
X164634277Y-94569205D01*
X164700990Y-94408145D01*
X164735000Y-94237165D01*
X164735000Y-94062835D01*
X164700990Y-93891855D01*
X164634277Y-93730795D01*
X164537424Y-93585845D01*
X164414155Y-93462576D01*
X164269205Y-93365723D01*
X164108145Y-93299010D01*
X163937165Y-93265000D01*
X163762835Y-93265000D01*
X163591855Y-93299010D01*
X163430795Y-93365723D01*
X163285845Y-93462576D01*
X163162576Y-93585845D01*
X163065723Y-93730795D01*
X162999010Y-93891855D01*
X162965000Y-94062835D01*
X136660000Y-94062835D01*
X136660000Y-92056585D01*
X153258750Y-92056585D01*
X153258750Y-92230915D01*
X153292760Y-92401895D01*
X153359473Y-92562955D01*
X153456326Y-92707905D01*
X153579595Y-92831174D01*
X153724545Y-92928027D01*
X153885605Y-92994740D01*
X154056585Y-93028750D01*
X154230915Y-93028750D01*
X154401895Y-92994740D01*
X154562955Y-92928027D01*
X154707905Y-92831174D01*
X154831174Y-92707905D01*
X154928027Y-92562955D01*
X154994740Y-92401895D01*
X155020814Y-92270814D01*
X155151895Y-92244740D01*
X155312955Y-92178027D01*
X155457905Y-92081174D01*
X155581174Y-91957905D01*
X155678027Y-91812955D01*
X155698787Y-91762835D01*
X163265000Y-91762835D01*
X163265000Y-91937165D01*
X163299010Y-92108145D01*
X163365723Y-92269205D01*
X163462576Y-92414155D01*
X163585845Y-92537424D01*
X163730795Y-92634277D01*
X163891855Y-92700990D01*
X164062835Y-92735000D01*
X164237165Y-92735000D01*
X164408145Y-92700990D01*
X164569205Y-92634277D01*
X164714155Y-92537424D01*
X164837424Y-92414155D01*
X164934277Y-92269205D01*
X165000990Y-92108145D01*
X165035000Y-91937165D01*
X165035000Y-91762835D01*
X201265000Y-91762835D01*
X201265000Y-91937165D01*
X201299010Y-92108145D01*
X201365723Y-92269205D01*
X201462576Y-92414155D01*
X201585845Y-92537424D01*
X201730795Y-92634277D01*
X201891855Y-92700990D01*
X202062835Y-92735000D01*
X202237165Y-92735000D01*
X202408145Y-92700990D01*
X202569205Y-92634277D01*
X202714155Y-92537424D01*
X202837424Y-92414155D01*
X202934277Y-92269205D01*
X203000990Y-92108145D01*
X203035000Y-91937165D01*
X203035000Y-91762835D01*
X203000990Y-91591855D01*
X202934277Y-91430795D01*
X202837424Y-91285845D01*
X202714155Y-91162576D01*
X202569205Y-91065723D01*
X202408145Y-90999010D01*
X202237165Y-90965000D01*
X202062835Y-90965000D01*
X201891855Y-90999010D01*
X201730795Y-91065723D01*
X201585845Y-91162576D01*
X201462576Y-91285845D01*
X201365723Y-91430795D01*
X201299010Y-91591855D01*
X201265000Y-91762835D01*
X165035000Y-91762835D01*
X165000990Y-91591855D01*
X164934277Y-91430795D01*
X164837424Y-91285845D01*
X164714155Y-91162576D01*
X164569205Y-91065723D01*
X164408145Y-90999010D01*
X164237165Y-90965000D01*
X164062835Y-90965000D01*
X163891855Y-90999010D01*
X163730795Y-91065723D01*
X163585845Y-91162576D01*
X163462576Y-91285845D01*
X163365723Y-91430795D01*
X163299010Y-91591855D01*
X163265000Y-91762835D01*
X155698787Y-91762835D01*
X155744740Y-91651895D01*
X155778750Y-91480915D01*
X155778750Y-91306585D01*
X155744740Y-91135605D01*
X155678027Y-90974545D01*
X155581174Y-90829595D01*
X155457905Y-90706326D01*
X155312955Y-90609473D01*
X155151895Y-90542760D01*
X154980915Y-90508750D01*
X154806585Y-90508750D01*
X154635605Y-90542760D01*
X154474545Y-90609473D01*
X154329595Y-90706326D01*
X154206326Y-90829595D01*
X154109473Y-90974545D01*
X154042760Y-91135605D01*
X154016686Y-91266686D01*
X153885605Y-91292760D01*
X153724545Y-91359473D01*
X153579595Y-91456326D01*
X153456326Y-91579595D01*
X153359473Y-91724545D01*
X153292760Y-91885605D01*
X153258750Y-92056585D01*
X136660000Y-92056585D01*
X136660000Y-89912835D01*
X149402500Y-89912835D01*
X149402500Y-90087165D01*
X149436510Y-90258145D01*
X149503223Y-90419205D01*
X149600076Y-90564155D01*
X149723345Y-90687424D01*
X149868295Y-90784277D01*
X150029355Y-90850990D01*
X150200335Y-90885000D01*
X150374665Y-90885000D01*
X150545645Y-90850990D01*
X150706705Y-90784277D01*
X150851655Y-90687424D01*
X150974924Y-90564155D01*
X151071777Y-90419205D01*
X151138490Y-90258145D01*
X151172500Y-90087165D01*
X151172500Y-89912835D01*
X151138490Y-89741855D01*
X151071777Y-89580795D01*
X150974924Y-89435845D01*
X150951914Y-89412835D01*
X194615000Y-89412835D01*
X194615000Y-89587165D01*
X194649010Y-89758145D01*
X194715723Y-89919205D01*
X194812576Y-90064155D01*
X194935845Y-90187424D01*
X195080795Y-90284277D01*
X195241855Y-90350990D01*
X195412835Y-90385000D01*
X195587165Y-90385000D01*
X195758145Y-90350990D01*
X195919205Y-90284277D01*
X196064155Y-90187424D01*
X196187424Y-90064155D01*
X196284277Y-89919205D01*
X196350990Y-89758145D01*
X196385000Y-89587165D01*
X196385000Y-89412835D01*
X196350990Y-89241855D01*
X196284277Y-89080795D01*
X196187424Y-88935845D01*
X196064155Y-88812576D01*
X195919205Y-88715723D01*
X195758145Y-88649010D01*
X195587165Y-88615000D01*
X195412835Y-88615000D01*
X195241855Y-88649010D01*
X195080795Y-88715723D01*
X194935845Y-88812576D01*
X194812576Y-88935845D01*
X194715723Y-89080795D01*
X194649010Y-89241855D01*
X194615000Y-89412835D01*
X150951914Y-89412835D01*
X150851655Y-89312576D01*
X150706705Y-89215723D01*
X150545645Y-89149010D01*
X150374665Y-89115000D01*
X150200335Y-89115000D01*
X150029355Y-89149010D01*
X149868295Y-89215723D01*
X149723345Y-89312576D01*
X149600076Y-89435845D01*
X149503223Y-89580795D01*
X149436510Y-89741855D01*
X149402500Y-89912835D01*
X136660000Y-89912835D01*
X136660000Y-87162835D01*
X142865000Y-87162835D01*
X142865000Y-87337165D01*
X142899010Y-87508145D01*
X142965723Y-87669205D01*
X143062576Y-87814155D01*
X143185845Y-87937424D01*
X143330795Y-88034277D01*
X143491855Y-88100990D01*
X143662835Y-88135000D01*
X143837165Y-88135000D01*
X144008145Y-88100990D01*
X144169205Y-88034277D01*
X144314155Y-87937424D01*
X144338744Y-87912835D01*
X151615000Y-87912835D01*
X151615000Y-88087165D01*
X151649010Y-88258145D01*
X151715723Y-88419205D01*
X151812576Y-88564155D01*
X151935845Y-88687424D01*
X152080795Y-88784277D01*
X152241855Y-88850990D01*
X152412835Y-88885000D01*
X152587165Y-88885000D01*
X152758145Y-88850990D01*
X152919205Y-88784277D01*
X153064155Y-88687424D01*
X153187424Y-88564155D01*
X153284277Y-88419205D01*
X153350990Y-88258145D01*
X153385000Y-88087165D01*
X153385000Y-87912835D01*
X153350990Y-87741855D01*
X153284277Y-87580795D01*
X153187424Y-87435845D01*
X153064155Y-87312576D01*
X152919205Y-87215723D01*
X152758145Y-87149010D01*
X152587165Y-87115000D01*
X152412835Y-87115000D01*
X152241855Y-87149010D01*
X152080795Y-87215723D01*
X151935845Y-87312576D01*
X151812576Y-87435845D01*
X151715723Y-87580795D01*
X151649010Y-87741855D01*
X151615000Y-87912835D01*
X144338744Y-87912835D01*
X144437424Y-87814155D01*
X144534277Y-87669205D01*
X144539947Y-87655515D01*
X144625335Y-87672500D01*
X144799665Y-87672500D01*
X144970645Y-87638490D01*
X145131705Y-87571777D01*
X145276655Y-87474924D01*
X145399924Y-87351655D01*
X145496777Y-87206705D01*
X145563490Y-87045645D01*
X145597500Y-86874665D01*
X145597500Y-86700335D01*
X145563490Y-86529355D01*
X145496777Y-86368295D01*
X145399924Y-86223345D01*
X145276655Y-86100076D01*
X145131705Y-86003223D01*
X144970645Y-85936510D01*
X144851623Y-85912835D01*
X152615000Y-85912835D01*
X152615000Y-86087165D01*
X152649010Y-86258145D01*
X152715723Y-86419205D01*
X152812576Y-86564155D01*
X152935845Y-86687424D01*
X153080795Y-86784277D01*
X153241855Y-86850990D01*
X153412835Y-86885000D01*
X153587165Y-86885000D01*
X153758145Y-86850990D01*
X153919205Y-86784277D01*
X154064155Y-86687424D01*
X154187424Y-86564155D01*
X154284277Y-86419205D01*
X154350990Y-86258145D01*
X154385000Y-86087165D01*
X154385000Y-85912835D01*
X154350990Y-85741855D01*
X154284277Y-85580795D01*
X154187424Y-85435845D01*
X154064155Y-85312576D01*
X153919205Y-85215723D01*
X153758145Y-85149010D01*
X153587165Y-85115000D01*
X153412835Y-85115000D01*
X153241855Y-85149010D01*
X153080795Y-85215723D01*
X152935845Y-85312576D01*
X152812576Y-85435845D01*
X152715723Y-85580795D01*
X152649010Y-85741855D01*
X152615000Y-85912835D01*
X144851623Y-85912835D01*
X144799665Y-85902500D01*
X144625335Y-85902500D01*
X144454355Y-85936510D01*
X144293295Y-86003223D01*
X144148345Y-86100076D01*
X144025076Y-86223345D01*
X143928223Y-86368295D01*
X143922553Y-86381985D01*
X143837165Y-86365000D01*
X143662835Y-86365000D01*
X143491855Y-86399010D01*
X143330795Y-86465723D01*
X143185845Y-86562576D01*
X143062576Y-86685845D01*
X142965723Y-86830795D01*
X142899010Y-86991855D01*
X142865000Y-87162835D01*
X136660000Y-87162835D01*
X136660000Y-84388212D01*
X201865000Y-84388212D01*
X201865000Y-84611788D01*
X201908617Y-84831067D01*
X201994176Y-85037624D01*
X202118388Y-85223520D01*
X202144868Y-85250000D01*
X202118388Y-85276480D01*
X201994176Y-85462376D01*
X201908617Y-85668933D01*
X201865000Y-85888212D01*
X201865000Y-86111788D01*
X201908617Y-86331067D01*
X201994176Y-86537624D01*
X202118388Y-86723520D01*
X202276480Y-86881612D01*
X202462376Y-87005824D01*
X202668933Y-87091383D01*
X202888212Y-87135000D01*
X203111788Y-87135000D01*
X203331067Y-87091383D01*
X203537624Y-87005824D01*
X203723520Y-86881612D01*
X203750000Y-86855132D01*
X203776480Y-86881612D01*
X203962376Y-87005824D01*
X204168933Y-87091383D01*
X204388212Y-87135000D01*
X204611788Y-87135000D01*
X204831067Y-87091383D01*
X205037624Y-87005824D01*
X205223520Y-86881612D01*
X205381612Y-86723520D01*
X205505824Y-86537624D01*
X205591383Y-86331067D01*
X205635000Y-86111788D01*
X205635000Y-85888212D01*
X205591383Y-85668933D01*
X205505824Y-85462376D01*
X205381612Y-85276480D01*
X205355132Y-85250000D01*
X205381612Y-85223520D01*
X205505824Y-85037624D01*
X205591383Y-84831067D01*
X205635000Y-84611788D01*
X205635000Y-84388212D01*
X205591383Y-84168933D01*
X205505824Y-83962376D01*
X205381612Y-83776480D01*
X205223520Y-83618388D01*
X205037624Y-83494176D01*
X204831067Y-83408617D01*
X204611788Y-83365000D01*
X204388212Y-83365000D01*
X204168933Y-83408617D01*
X203962376Y-83494176D01*
X203776480Y-83618388D01*
X203750000Y-83644868D01*
X203723520Y-83618388D01*
X203537624Y-83494176D01*
X203331067Y-83408617D01*
X203111788Y-83365000D01*
X202888212Y-83365000D01*
X202668933Y-83408617D01*
X202462376Y-83494176D01*
X202276480Y-83618388D01*
X202118388Y-83776480D01*
X201994176Y-83962376D01*
X201908617Y-84168933D01*
X201865000Y-84388212D01*
X136660000Y-84388212D01*
X136660000Y-73357315D01*
X136677923Y-73314045D01*
X136737024Y-73237024D01*
X136814045Y-73177923D01*
X136857315Y-73160000D01*
X245142685Y-73160000D01*
X245185955Y-73177923D01*
X245185955Y-73177923D01*
G37*
X245185955Y-73177923D02*
X245262976Y-73237024D01*
X245322077Y-73314045D01*
X245340001Y-73357318D01*
X245340000Y-136642685D01*
X245322077Y-136685955D01*
X245262976Y-136762976D01*
X245185955Y-136822077D01*
X245142685Y-136840000D01*
X136857315Y-136840000D01*
X136814045Y-136822077D01*
X136737024Y-136762976D01*
X136677923Y-136685955D01*
X136660000Y-136642685D01*
X136660000Y-132000000D01*
X147801638Y-132000000D01*
X147805000Y-132034135D01*
X147805001Y-133965856D01*
X147801638Y-134000000D01*
X147815057Y-134136244D01*
X147854798Y-134267252D01*
X147919333Y-134387989D01*
X148006183Y-134493817D01*
X148112011Y-134580667D01*
X148232748Y-134645202D01*
X148363756Y-134684943D01*
X148465865Y-134695000D01*
X148465866Y-134695000D01*
X148500000Y-134698362D01*
X148534135Y-134695000D01*
X153465865Y-134695000D01*
X153500000Y-134698362D01*
X153534134Y-134695000D01*
X153534135Y-134695000D01*
X153636244Y-134684943D01*
X153767252Y-134645202D01*
X153887989Y-134580667D01*
X153993817Y-134493817D01*
X154080667Y-134387989D01*
X154145202Y-134267252D01*
X154184943Y-134136244D01*
X154198362Y-134000000D01*
X154195000Y-133965865D01*
X154195000Y-133388212D01*
X193865000Y-133388212D01*
X193865000Y-133611788D01*
X193908617Y-133831067D01*
X193994176Y-134037624D01*
X194118388Y-134223520D01*
X194276480Y-134381612D01*
X194462376Y-134505824D01*
X194668933Y-134591383D01*
X194888212Y-134635000D01*
X195111788Y-134635000D01*
X195331067Y-134591383D01*
X195537624Y-134505824D01*
X195723520Y-134381612D01*
X195881612Y-134223520D01*
X196005824Y-134037624D01*
X196091383Y-133831067D01*
X196135000Y-133611788D01*
X196135000Y-133388212D01*
X196091383Y-133168933D01*
X196005824Y-132962376D01*
X195881612Y-132776480D01*
X195723520Y-132618388D01*
X195537624Y-132494176D01*
X195331067Y-132408617D01*
X195111788Y-132365000D01*
X194888212Y-132365000D01*
X194668933Y-132408617D01*
X194462376Y-132494176D01*
X194276480Y-132618388D01*
X194118388Y-132776480D01*
X193994176Y-132962376D01*
X193908617Y-133168933D01*
X193865000Y-133388212D01*
X154195000Y-133388212D01*
X154195000Y-132034135D01*
X154198362Y-132000000D01*
X154184943Y-131863756D01*
X154145202Y-131732748D01*
X154080667Y-131612011D01*
X153993817Y-131506183D01*
X153887989Y-131419333D01*
X153767252Y-131354798D01*
X153636244Y-131315057D01*
X153534135Y-131305000D01*
X153500000Y-131301638D01*
X153465866Y-131305000D01*
X148534134Y-131305000D01*
X148500000Y-131301638D01*
X148465865Y-131305000D01*
X148363756Y-131315057D01*
X148232748Y-131354798D01*
X148112011Y-131419333D01*
X148006183Y-131506183D01*
X147919333Y-131612011D01*
X147854798Y-131732748D01*
X147815057Y-131863756D01*
X147801638Y-132000000D01*
X136660000Y-132000000D01*
X136660000Y-129625335D01*
X183902500Y-129625335D01*
X183902500Y-129799665D01*
X183936510Y-129970645D01*
X184003223Y-130131705D01*
X184057209Y-130212500D01*
X184003223Y-130293295D01*
X183936510Y-130454355D01*
X183902500Y-130625335D01*
X183902500Y-130799665D01*
X183936510Y-130970645D01*
X184003223Y-131131705D01*
X184100076Y-131276655D01*
X184223345Y-131399924D01*
X184368295Y-131496777D01*
X184529355Y-131563490D01*
X184700335Y-131597500D01*
X184874665Y-131597500D01*
X185045645Y-131563490D01*
X185206705Y-131496777D01*
X185351655Y-131399924D01*
X185449529Y-131302050D01*
X231015000Y-131302050D01*
X231015000Y-131697949D01*
X231036487Y-131916110D01*
X231121401Y-132196033D01*
X231259294Y-132454013D01*
X231444866Y-132680134D01*
X231670986Y-132865706D01*
X231928966Y-133003599D01*
X232208889Y-133088513D01*
X232500000Y-133117185D01*
X232791110Y-133088513D01*
X233071033Y-133003599D01*
X233329013Y-132865706D01*
X233555134Y-132680134D01*
X233740706Y-132454014D01*
X233750000Y-132436626D01*
X233759294Y-132454013D01*
X233944866Y-132680134D01*
X234170986Y-132865706D01*
X234428966Y-133003599D01*
X234708889Y-133088513D01*
X235000000Y-133117185D01*
X235291110Y-133088513D01*
X235571033Y-133003599D01*
X235829013Y-132865706D01*
X236055134Y-132680134D01*
X236107223Y-132616663D01*
X236161595Y-132718386D01*
X236272038Y-132852962D01*
X236406614Y-132963405D01*
X236560150Y-133045472D01*
X236726746Y-133096008D01*
X236900000Y-133113072D01*
X238100000Y-133113072D01*
X238273254Y-133096008D01*
X238439850Y-133045472D01*
X238593386Y-132963405D01*
X238727962Y-132852962D01*
X238838405Y-132718386D01*
X238920472Y-132564850D01*
X238971008Y-132398254D01*
X238988072Y-132225000D01*
X238988072Y-130775000D01*
X238971008Y-130601746D01*
X238920472Y-130435150D01*
X238838405Y-130281614D01*
X238727962Y-130147038D01*
X238593386Y-130036595D01*
X238439850Y-129954528D01*
X238273254Y-129903992D01*
X238100000Y-129886928D01*
X236900000Y-129886928D01*
X236726746Y-129903992D01*
X236560150Y-129954528D01*
X236406614Y-130036595D01*
X236272038Y-130147038D01*
X236161595Y-130281614D01*
X236107223Y-130383337D01*
X236055134Y-130319866D01*
X235829014Y-130134294D01*
X235571034Y-129996401D01*
X235291111Y-129911487D01*
X235000000Y-129882815D01*
X234708890Y-129911487D01*
X234428967Y-129996401D01*
X234170987Y-130134294D01*
X233944866Y-130319866D01*
X233759294Y-130545986D01*
X233750000Y-130563374D01*
X233740706Y-130545986D01*
X233555134Y-130319866D01*
X233329014Y-130134294D01*
X233071034Y-129996401D01*
X232791111Y-129911487D01*
X232500000Y-129882815D01*
X232208890Y-129911487D01*
X231928967Y-129996401D01*
X231670987Y-130134294D01*
X231444866Y-130319866D01*
X231259294Y-130545986D01*
X231121401Y-130803966D01*
X231036487Y-131083889D01*
X231015000Y-131302050D01*
X185449529Y-131302050D01*
X185474924Y-131276655D01*
X185571777Y-131131705D01*
X185638490Y-130970645D01*
X185672500Y-130799665D01*
X185672500Y-130625335D01*
X185638490Y-130454355D01*
X185571777Y-130293295D01*
X185517791Y-130212500D01*
X185571777Y-130131705D01*
X185638490Y-129970645D01*
X185672500Y-129799665D01*
X185672500Y-129625335D01*
X185638490Y-129454355D01*
X185571777Y-129293295D01*
X185474924Y-129148345D01*
X185351655Y-129025076D01*
X185206705Y-128928223D01*
X185045645Y-128861510D01*
X184874665Y-128827500D01*
X184700335Y-128827500D01*
X184529355Y-128861510D01*
X184368295Y-128928223D01*
X184223345Y-129025076D01*
X184100076Y-129148345D01*
X184003223Y-129293295D01*
X183936510Y-129454355D01*
X183902500Y-129625335D01*
X136660000Y-129625335D01*
X136660000Y-125912835D01*
X190615000Y-125912835D01*
X190615000Y-126087165D01*
X190649010Y-126258145D01*
X190715723Y-126419205D01*
X190812576Y-126564155D01*
X190935845Y-126687424D01*
X191080795Y-126784277D01*
X191241855Y-126850990D01*
X191412835Y-126885000D01*
X191587165Y-126885000D01*
X191758145Y-126850990D01*
X191919205Y-126784277D01*
X192064155Y-126687424D01*
X192187424Y-126564155D01*
X192284277Y-126419205D01*
X192350990Y-126258145D01*
X192372551Y-126149750D01*
X192408617Y-126331067D01*
X192494176Y-126537624D01*
X192618388Y-126723520D01*
X192644868Y-126750000D01*
X192618388Y-126776480D01*
X192494176Y-126962376D01*
X192408617Y-127168933D01*
X192365000Y-127388212D01*
X192365000Y-127611788D01*
X192408617Y-127831067D01*
X192494176Y-128037624D01*
X192618388Y-128223520D01*
X192776480Y-128381612D01*
X192962376Y-128505824D01*
X193168933Y-128591383D01*
X193388212Y-128635000D01*
X193611788Y-128635000D01*
X193831067Y-128591383D01*
X194037624Y-128505824D01*
X194223520Y-128381612D01*
X194250000Y-128355132D01*
X194276480Y-128381612D01*
X194462376Y-128505824D01*
X194668933Y-128591383D01*
X194888212Y-128635000D01*
X195111788Y-128635000D01*
X195331067Y-128591383D01*
X195537624Y-128505824D01*
X195723520Y-128381612D01*
X195881612Y-128223520D01*
X196005824Y-128037624D01*
X196091383Y-127831067D01*
X196135000Y-127611788D01*
X196135000Y-127388212D01*
X196091383Y-127168933D01*
X196005824Y-126962376D01*
X195881612Y-126776480D01*
X195855132Y-126750000D01*
X195881612Y-126723520D01*
X196005824Y-126537624D01*
X196091383Y-126331067D01*
X196135000Y-126111788D01*
X196135000Y-125888212D01*
X196091383Y-125668933D01*
X196005824Y-125462376D01*
X195881612Y-125276480D01*
X195723520Y-125118388D01*
X195537624Y-124994176D01*
X195331067Y-124908617D01*
X195111788Y-124865000D01*
X194888212Y-124865000D01*
X194668933Y-124908617D01*
X194462376Y-124994176D01*
X194276480Y-125118388D01*
X194250000Y-125144868D01*
X194223520Y-125118388D01*
X194037624Y-124994176D01*
X193831067Y-124908617D01*
X193611788Y-124865000D01*
X193388212Y-124865000D01*
X193168933Y-124908617D01*
X192962376Y-124994176D01*
X192776480Y-125118388D01*
X192618388Y-125276480D01*
X192494176Y-125462376D01*
X192408617Y-125668933D01*
X192372551Y-125850250D01*
X192350990Y-125741855D01*
X192284277Y-125580795D01*
X192187424Y-125435845D01*
X192064155Y-125312576D01*
X191919205Y-125215723D01*
X191758145Y-125149010D01*
X191587165Y-125115000D01*
X191412835Y-125115000D01*
X191241855Y-125149010D01*
X191080795Y-125215723D01*
X190935845Y-125312576D01*
X190812576Y-125435845D01*
X190715723Y-125580795D01*
X190649010Y-125741855D01*
X190615000Y-125912835D01*
X136660000Y-125912835D01*
X136660000Y-122985335D01*
X173042500Y-122985335D01*
X173042500Y-123159665D01*
X173076510Y-123330645D01*
X173143223Y-123491705D01*
X173240076Y-123636655D01*
X173363345Y-123759924D01*
X173508295Y-123856777D01*
X173669355Y-123923490D01*
X173840335Y-123957500D01*
X174014665Y-123957500D01*
X174185645Y-123923490D01*
X174346705Y-123856777D01*
X174427500Y-123802791D01*
X174508295Y-123856777D01*
X174669355Y-123923490D01*
X174840335Y-123957500D01*
X175014665Y-123957500D01*
X175185645Y-123923490D01*
X175346705Y-123856777D01*
X175491655Y-123759924D01*
X175614924Y-123636655D01*
X175711777Y-123491705D01*
X175778490Y-123330645D01*
X175812500Y-123159665D01*
X175812500Y-122985335D01*
X175778490Y-122814355D01*
X175711777Y-122653295D01*
X175614924Y-122508345D01*
X175491655Y-122385076D01*
X175346705Y-122288223D01*
X175185645Y-122221510D01*
X175014665Y-122187500D01*
X174840335Y-122187500D01*
X174669355Y-122221510D01*
X174508295Y-122288223D01*
X174427500Y-122342209D01*
X174346705Y-122288223D01*
X174185645Y-122221510D01*
X174014665Y-122187500D01*
X173840335Y-122187500D01*
X173669355Y-122221510D01*
X173508295Y-122288223D01*
X173363345Y-122385076D01*
X173240076Y-122508345D01*
X173143223Y-122653295D01*
X173076510Y-122814355D01*
X173042500Y-122985335D01*
X136660000Y-122985335D01*
X136660000Y-120912835D01*
X190615000Y-120912835D01*
X190615000Y-121087165D01*
X190649010Y-121258145D01*
X190715723Y-121419205D01*
X190812576Y-121564155D01*
X190935845Y-121687424D01*
X191080795Y-121784277D01*
X191241855Y-121850990D01*
X191412835Y-121885000D01*
X191587165Y-121885000D01*
X191758145Y-121850990D01*
X191919205Y-121784277D01*
X192064155Y-121687424D01*
X192187424Y-121564155D01*
X192284277Y-121419205D01*
X192350990Y-121258145D01*
X192385000Y-121087165D01*
X192385000Y-120912835D01*
X192350990Y-120741855D01*
X192284277Y-120580795D01*
X192187424Y-120435845D01*
X192064155Y-120312576D01*
X191919205Y-120215723D01*
X191758145Y-120149010D01*
X191587165Y-120115000D01*
X191412835Y-120115000D01*
X191241855Y-120149010D01*
X191080795Y-120215723D01*
X190935845Y-120312576D01*
X190812576Y-120435845D01*
X190715723Y-120580795D01*
X190649010Y-120741855D01*
X190615000Y-120912835D01*
X136660000Y-120912835D01*
X136660000Y-118556585D01*
X149971250Y-118556585D01*
X149971250Y-118730915D01*
X150005260Y-118901895D01*
X150071973Y-119062955D01*
X150168826Y-119207905D01*
X150292095Y-119331174D01*
X150437045Y-119428027D01*
X150598105Y-119494740D01*
X150729186Y-119520814D01*
X150755260Y-119651895D01*
X150821973Y-119812955D01*
X150918826Y-119957905D01*
X151042095Y-120081174D01*
X151187045Y-120178027D01*
X151348105Y-120244740D01*
X151519085Y-120278750D01*
X151693415Y-120278750D01*
X151864395Y-120244740D01*
X152025455Y-120178027D01*
X152170405Y-120081174D01*
X152293674Y-119957905D01*
X152390527Y-119812955D01*
X152457240Y-119651895D01*
X152491250Y-119480915D01*
X152491250Y-119306585D01*
X152457240Y-119135605D01*
X152390527Y-118974545D01*
X152293674Y-118829595D01*
X152170405Y-118706326D01*
X152025455Y-118609473D01*
X151864395Y-118542760D01*
X151733314Y-118516686D01*
X151707240Y-118385605D01*
X151640527Y-118224545D01*
X151543674Y-118079595D01*
X151420405Y-117956326D01*
X151275455Y-117859473D01*
X151114395Y-117792760D01*
X150943415Y-117758750D01*
X150769085Y-117758750D01*
X150598105Y-117792760D01*
X150437045Y-117859473D01*
X150292095Y-117956326D01*
X150168826Y-118079595D01*
X150071973Y-118224545D01*
X150005260Y-118385605D01*
X149971250Y-118556585D01*
X136660000Y-118556585D01*
X136660000Y-115737835D01*
X188327500Y-115737835D01*
X188327500Y-115912165D01*
X188361510Y-116083145D01*
X188428223Y-116244205D01*
X188525076Y-116389155D01*
X188648345Y-116512424D01*
X188793295Y-116609277D01*
X188954355Y-116675990D01*
X189125335Y-116710000D01*
X189299665Y-116710000D01*
X189470645Y-116675990D01*
X189631705Y-116609277D01*
X189776655Y-116512424D01*
X189899924Y-116389155D01*
X189996777Y-116244205D01*
X190052772Y-116109022D01*
X190187955Y-116053027D01*
X190332905Y-115956174D01*
X190456174Y-115832905D01*
X190553027Y-115687955D01*
X190619740Y-115526895D01*
X190653750Y-115355915D01*
X190653750Y-115181585D01*
X190619740Y-115010605D01*
X190553027Y-114849545D01*
X190456174Y-114704595D01*
X190332905Y-114581326D01*
X190187955Y-114484473D01*
X190026895Y-114417760D01*
X189855915Y-114383750D01*
X189681585Y-114383750D01*
X189510605Y-114417760D01*
X189349545Y-114484473D01*
X189204595Y-114581326D01*
X189081326Y-114704595D01*
X188984473Y-114849545D01*
X188928478Y-114984728D01*
X188793295Y-115040723D01*
X188648345Y-115137576D01*
X188525076Y-115260845D01*
X188428223Y-115405795D01*
X188361510Y-115566855D01*
X188327500Y-115737835D01*
X136660000Y-115737835D01*
X136660000Y-112125335D01*
X181902500Y-112125335D01*
X181902500Y-112299665D01*
X181936510Y-112470645D01*
X182003223Y-112631705D01*
X182057209Y-112712500D01*
X182003223Y-112793295D01*
X181936510Y-112954355D01*
X181902500Y-113125335D01*
X181902500Y-113299665D01*
X181936510Y-113470645D01*
X182003223Y-113631705D01*
X182100076Y-113776655D01*
X182223345Y-113899924D01*
X182368295Y-113996777D01*
X182529355Y-114063490D01*
X182700335Y-114097500D01*
X182874665Y-114097500D01*
X183045645Y-114063490D01*
X183206705Y-113996777D01*
X183351655Y-113899924D01*
X183474924Y-113776655D01*
X183571777Y-113631705D01*
X183638490Y-113470645D01*
X183672500Y-113299665D01*
X183672500Y-113125335D01*
X183638490Y-112954355D01*
X183571777Y-112793295D01*
X183517791Y-112712500D01*
X183571777Y-112631705D01*
X183638490Y-112470645D01*
X183672500Y-112299665D01*
X183672500Y-112125335D01*
X183638490Y-111954355D01*
X183621292Y-111912835D01*
X187615000Y-111912835D01*
X187615000Y-112087165D01*
X187649010Y-112258145D01*
X187715723Y-112419205D01*
X187812576Y-112564155D01*
X187935845Y-112687424D01*
X188080795Y-112784277D01*
X188241855Y-112850990D01*
X188412835Y-112885000D01*
X188587165Y-112885000D01*
X188758145Y-112850990D01*
X188919205Y-112784277D01*
X189064155Y-112687424D01*
X189187424Y-112564155D01*
X189284277Y-112419205D01*
X189350990Y-112258145D01*
X189385000Y-112087165D01*
X189385000Y-111912835D01*
X189350990Y-111741855D01*
X189284277Y-111580795D01*
X189187424Y-111435845D01*
X189064155Y-111312576D01*
X188919205Y-111215723D01*
X188758145Y-111149010D01*
X188587165Y-111115000D01*
X188412835Y-111115000D01*
X188241855Y-111149010D01*
X188080795Y-111215723D01*
X187935845Y-111312576D01*
X187812576Y-111435845D01*
X187715723Y-111580795D01*
X187649010Y-111741855D01*
X187615000Y-111912835D01*
X183621292Y-111912835D01*
X183571777Y-111793295D01*
X183474924Y-111648345D01*
X183351655Y-111525076D01*
X183206705Y-111428223D01*
X183045645Y-111361510D01*
X182874665Y-111327500D01*
X182700335Y-111327500D01*
X182529355Y-111361510D01*
X182368295Y-111428223D01*
X182223345Y-111525076D01*
X182100076Y-111648345D01*
X182003223Y-111793295D01*
X181936510Y-111954355D01*
X181902500Y-112125335D01*
X136660000Y-112125335D01*
X136660000Y-108200335D01*
X154827500Y-108200335D01*
X154827500Y-108374665D01*
X154861510Y-108545645D01*
X154928223Y-108706705D01*
X155025076Y-108851655D01*
X155148345Y-108974924D01*
X155293295Y-109071777D01*
X155348522Y-109094652D01*
X155327500Y-109200335D01*
X155327500Y-109374665D01*
X155361510Y-109545645D01*
X155428223Y-109706705D01*
X155525076Y-109851655D01*
X155648345Y-109974924D01*
X155793295Y-110071777D01*
X155954355Y-110138490D01*
X156125335Y-110172500D01*
X156299665Y-110172500D01*
X156470645Y-110138490D01*
X156631705Y-110071777D01*
X156776655Y-109974924D01*
X156899924Y-109851655D01*
X156996777Y-109706705D01*
X157063490Y-109545645D01*
X157089907Y-109412835D01*
X183615000Y-109412835D01*
X183615000Y-109587165D01*
X183649010Y-109758145D01*
X183715723Y-109919205D01*
X183812576Y-110064155D01*
X183935845Y-110187424D01*
X184080795Y-110284277D01*
X184241855Y-110350990D01*
X184412835Y-110385000D01*
X184587165Y-110385000D01*
X184758145Y-110350990D01*
X184919205Y-110284277D01*
X185064155Y-110187424D01*
X185187424Y-110064155D01*
X185284277Y-109919205D01*
X185350990Y-109758145D01*
X185385000Y-109587165D01*
X185385000Y-109412835D01*
X185350990Y-109241855D01*
X185284277Y-109080795D01*
X185187424Y-108935845D01*
X185064155Y-108812576D01*
X184919205Y-108715723D01*
X184758145Y-108649010D01*
X184587165Y-108615000D01*
X184412835Y-108615000D01*
X184241855Y-108649010D01*
X184080795Y-108715723D01*
X183935845Y-108812576D01*
X183812576Y-108935845D01*
X183715723Y-109080795D01*
X183649010Y-109241855D01*
X183615000Y-109412835D01*
X157089907Y-109412835D01*
X157097500Y-109374665D01*
X157097500Y-109200335D01*
X157063490Y-109029355D01*
X156996777Y-108868295D01*
X156899924Y-108723345D01*
X156776655Y-108600076D01*
X156631705Y-108503223D01*
X156576478Y-108480348D01*
X156597500Y-108374665D01*
X156597500Y-108200335D01*
X156563490Y-108029355D01*
X156496777Y-107868295D01*
X156399924Y-107723345D01*
X156276655Y-107600076D01*
X156131705Y-107503223D01*
X155970645Y-107436510D01*
X155799665Y-107402500D01*
X155625335Y-107402500D01*
X155454355Y-107436510D01*
X155293295Y-107503223D01*
X155148345Y-107600076D01*
X155025076Y-107723345D01*
X154928223Y-107868295D01*
X154861510Y-108029355D01*
X154827500Y-108200335D01*
X136660000Y-108200335D01*
X136660000Y-102412835D01*
X156615000Y-102412835D01*
X156615000Y-102587165D01*
X156649010Y-102758145D01*
X156715723Y-102919205D01*
X156812576Y-103064155D01*
X156935845Y-103187424D01*
X157080795Y-103284277D01*
X157241855Y-103350990D01*
X157412835Y-103385000D01*
X157587165Y-103385000D01*
X157758145Y-103350990D01*
X157919205Y-103284277D01*
X158064155Y-103187424D01*
X158187424Y-103064155D01*
X158284277Y-102919205D01*
X158350990Y-102758145D01*
X158385000Y-102587165D01*
X158385000Y-102412835D01*
X158350990Y-102241855D01*
X158284277Y-102080795D01*
X158187424Y-101935845D01*
X158139791Y-101888212D01*
X201865000Y-101888212D01*
X201865000Y-102111788D01*
X201908617Y-102331067D01*
X201994176Y-102537624D01*
X202118388Y-102723520D01*
X202144868Y-102750000D01*
X202118388Y-102776480D01*
X201994176Y-102962376D01*
X201908617Y-103168933D01*
X201865000Y-103388212D01*
X201865000Y-103611788D01*
X201908617Y-103831067D01*
X201994176Y-104037624D01*
X202118388Y-104223520D01*
X202276480Y-104381612D01*
X202462376Y-104505824D01*
X202668933Y-104591383D01*
X202888212Y-104635000D01*
X203111788Y-104635000D01*
X203331067Y-104591383D01*
X203537624Y-104505824D01*
X203723520Y-104381612D01*
X203750000Y-104355132D01*
X203776480Y-104381612D01*
X203962376Y-104505824D01*
X204168933Y-104591383D01*
X204388212Y-104635000D01*
X204611788Y-104635000D01*
X204831067Y-104591383D01*
X205037624Y-104505824D01*
X205223520Y-104381612D01*
X205381612Y-104223520D01*
X205505824Y-104037624D01*
X205591383Y-103831067D01*
X205635000Y-103611788D01*
X205635000Y-103388212D01*
X205591383Y-103168933D01*
X205505824Y-102962376D01*
X205381612Y-102776480D01*
X205355132Y-102750000D01*
X205381612Y-102723520D01*
X205505824Y-102537624D01*
X205591383Y-102331067D01*
X205635000Y-102111788D01*
X205635000Y-101888212D01*
X205591383Y-101668933D01*
X205505824Y-101462376D01*
X205381612Y-101276480D01*
X205223520Y-101118388D01*
X205037624Y-100994176D01*
X204831067Y-100908617D01*
X204611788Y-100865000D01*
X204388212Y-100865000D01*
X204168933Y-100908617D01*
X203962376Y-100994176D01*
X203776480Y-101118388D01*
X203750000Y-101144868D01*
X203723520Y-101118388D01*
X203537624Y-100994176D01*
X203331067Y-100908617D01*
X203111788Y-100865000D01*
X202888212Y-100865000D01*
X202668933Y-100908617D01*
X202462376Y-100994176D01*
X202276480Y-101118388D01*
X202118388Y-101276480D01*
X201994176Y-101462376D01*
X201908617Y-101668933D01*
X201865000Y-101888212D01*
X158139791Y-101888212D01*
X158064155Y-101812576D01*
X157919205Y-101715723D01*
X157758145Y-101649010D01*
X157587165Y-101615000D01*
X157412835Y-101615000D01*
X157241855Y-101649010D01*
X157080795Y-101715723D01*
X156935845Y-101812576D01*
X156812576Y-101935845D01*
X156715723Y-102080795D01*
X156649010Y-102241855D01*
X156615000Y-102412835D01*
X136660000Y-102412835D01*
X136660000Y-99412835D01*
X156615000Y-99412835D01*
X156615000Y-99587165D01*
X156649010Y-99758145D01*
X156715723Y-99919205D01*
X156812576Y-100064155D01*
X156935845Y-100187424D01*
X157080795Y-100284277D01*
X157241855Y-100350990D01*
X157412835Y-100385000D01*
X157587165Y-100385000D01*
X157758145Y-100350990D01*
X157919205Y-100284277D01*
X158064155Y-100187424D01*
X158187424Y-100064155D01*
X158284277Y-99919205D01*
X158350990Y-99758145D01*
X158385000Y-99587165D01*
X158385000Y-99412835D01*
X158350990Y-99241855D01*
X158284277Y-99080795D01*
X158187424Y-98935845D01*
X158064155Y-98812576D01*
X157919205Y-98715723D01*
X157758145Y-98649010D01*
X157587165Y-98615000D01*
X157412835Y-98615000D01*
X157241855Y-98649010D01*
X157080795Y-98715723D01*
X156935845Y-98812576D01*
X156812576Y-98935845D01*
X156715723Y-99080795D01*
X156649010Y-99241855D01*
X156615000Y-99412835D01*
X136660000Y-99412835D01*
X136660000Y-94062835D01*
X162965000Y-94062835D01*
X162965000Y-94237165D01*
X162999010Y-94408145D01*
X163065723Y-94569205D01*
X163162576Y-94714155D01*
X163285845Y-94837424D01*
X163430795Y-94934277D01*
X163591855Y-95000990D01*
X163762835Y-95035000D01*
X163937165Y-95035000D01*
X164108145Y-95000990D01*
X164269205Y-94934277D01*
X164414155Y-94837424D01*
X164537424Y-94714155D01*
X164584243Y-94644085D01*
X174846250Y-94644085D01*
X174846250Y-94818415D01*
X174880260Y-94989395D01*
X174946973Y-95150455D01*
X175043826Y-95295405D01*
X175167095Y-95418674D01*
X175312045Y-95515527D01*
X175473105Y-95582240D01*
X175644085Y-95616250D01*
X175818415Y-95616250D01*
X175989395Y-95582240D01*
X176150455Y-95515527D01*
X176295405Y-95418674D01*
X176418674Y-95295405D01*
X176515527Y-95150455D01*
X176549860Y-95067569D01*
X176700335Y-95097500D01*
X176874665Y-95097500D01*
X177045645Y-95063490D01*
X177206705Y-94996777D01*
X177351655Y-94899924D01*
X177474924Y-94776655D01*
X177571777Y-94631705D01*
X177638490Y-94470645D01*
X177672500Y-94299665D01*
X177672500Y-94144085D01*
X188883750Y-94144085D01*
X188883750Y-94318415D01*
X188917760Y-94489395D01*
X188984473Y-94650455D01*
X189081326Y-94795405D01*
X189204595Y-94918674D01*
X189349545Y-95015527D01*
X189510605Y-95082240D01*
X189641686Y-95108314D01*
X189667760Y-95239395D01*
X189734473Y-95400455D01*
X189831326Y-95545405D01*
X189954595Y-95668674D01*
X190099545Y-95765527D01*
X190260605Y-95832240D01*
X190431585Y-95866250D01*
X190605915Y-95866250D01*
X190776895Y-95832240D01*
X190937955Y-95765527D01*
X191082905Y-95668674D01*
X191206174Y-95545405D01*
X191303027Y-95400455D01*
X191369740Y-95239395D01*
X191403750Y-95068415D01*
X191403750Y-94894085D01*
X191369740Y-94723105D01*
X191303027Y-94562045D01*
X191206174Y-94417095D01*
X191082905Y-94293826D01*
X190937955Y-94196973D01*
X190776895Y-94130260D01*
X190645814Y-94104186D01*
X190619740Y-93973105D01*
X190553027Y-93812045D01*
X190456174Y-93667095D01*
X190332905Y-93543826D01*
X190187955Y-93446973D01*
X190026895Y-93380260D01*
X189855915Y-93346250D01*
X189681585Y-93346250D01*
X189510605Y-93380260D01*
X189349545Y-93446973D01*
X189204595Y-93543826D01*
X189081326Y-93667095D01*
X188984473Y-93812045D01*
X188917760Y-93973105D01*
X188883750Y-94144085D01*
X177672500Y-94144085D01*
X177672500Y-94125335D01*
X177638490Y-93954355D01*
X177571777Y-93793295D01*
X177474924Y-93648345D01*
X177351655Y-93525076D01*
X177206705Y-93428223D01*
X177045645Y-93361510D01*
X176874665Y-93327500D01*
X176700335Y-93327500D01*
X176529355Y-93361510D01*
X176368295Y-93428223D01*
X176223345Y-93525076D01*
X176100076Y-93648345D01*
X176003223Y-93793295D01*
X175968890Y-93876181D01*
X175818415Y-93846250D01*
X175644085Y-93846250D01*
X175473105Y-93880260D01*
X175312045Y-93946973D01*
X175167095Y-94043826D01*
X175043826Y-94167095D01*
X174946973Y-94312045D01*
X174880260Y-94473105D01*
X174846250Y-94644085D01*
X164584243Y-94644085D01*
X164634277Y-94569205D01*
X164700990Y-94408145D01*
X164735000Y-94237165D01*
X164735000Y-94062835D01*
X164700990Y-93891855D01*
X164634277Y-93730795D01*
X164537424Y-93585845D01*
X164414155Y-93462576D01*
X164269205Y-93365723D01*
X164108145Y-93299010D01*
X163937165Y-93265000D01*
X163762835Y-93265000D01*
X163591855Y-93299010D01*
X163430795Y-93365723D01*
X163285845Y-93462576D01*
X163162576Y-93585845D01*
X163065723Y-93730795D01*
X162999010Y-93891855D01*
X162965000Y-94062835D01*
X136660000Y-94062835D01*
X136660000Y-92056585D01*
X153258750Y-92056585D01*
X153258750Y-92230915D01*
X153292760Y-92401895D01*
X153359473Y-92562955D01*
X153456326Y-92707905D01*
X153579595Y-92831174D01*
X153724545Y-92928027D01*
X153885605Y-92994740D01*
X154056585Y-93028750D01*
X154230915Y-93028750D01*
X154401895Y-92994740D01*
X154562955Y-92928027D01*
X154707905Y-92831174D01*
X154831174Y-92707905D01*
X154928027Y-92562955D01*
X154994740Y-92401895D01*
X155020814Y-92270814D01*
X155151895Y-92244740D01*
X155312955Y-92178027D01*
X155457905Y-92081174D01*
X155581174Y-91957905D01*
X155678027Y-91812955D01*
X155698787Y-91762835D01*
X163265000Y-91762835D01*
X163265000Y-91937165D01*
X163299010Y-92108145D01*
X163365723Y-92269205D01*
X163462576Y-92414155D01*
X163585845Y-92537424D01*
X163730795Y-92634277D01*
X163891855Y-92700990D01*
X164062835Y-92735000D01*
X164237165Y-92735000D01*
X164408145Y-92700990D01*
X164569205Y-92634277D01*
X164714155Y-92537424D01*
X164837424Y-92414155D01*
X164934277Y-92269205D01*
X165000990Y-92108145D01*
X165035000Y-91937165D01*
X165035000Y-91762835D01*
X201265000Y-91762835D01*
X201265000Y-91937165D01*
X201299010Y-92108145D01*
X201365723Y-92269205D01*
X201462576Y-92414155D01*
X201585845Y-92537424D01*
X201730795Y-92634277D01*
X201891855Y-92700990D01*
X202062835Y-92735000D01*
X202237165Y-92735000D01*
X202408145Y-92700990D01*
X202569205Y-92634277D01*
X202714155Y-92537424D01*
X202837424Y-92414155D01*
X202934277Y-92269205D01*
X203000990Y-92108145D01*
X203035000Y-91937165D01*
X203035000Y-91762835D01*
X203000990Y-91591855D01*
X202934277Y-91430795D01*
X202837424Y-91285845D01*
X202714155Y-91162576D01*
X202569205Y-91065723D01*
X202408145Y-90999010D01*
X202237165Y-90965000D01*
X202062835Y-90965000D01*
X201891855Y-90999010D01*
X201730795Y-91065723D01*
X201585845Y-91162576D01*
X201462576Y-91285845D01*
X201365723Y-91430795D01*
X201299010Y-91591855D01*
X201265000Y-91762835D01*
X165035000Y-91762835D01*
X165000990Y-91591855D01*
X164934277Y-91430795D01*
X164837424Y-91285845D01*
X164714155Y-91162576D01*
X164569205Y-91065723D01*
X164408145Y-90999010D01*
X164237165Y-90965000D01*
X164062835Y-90965000D01*
X163891855Y-90999010D01*
X163730795Y-91065723D01*
X163585845Y-91162576D01*
X163462576Y-91285845D01*
X163365723Y-91430795D01*
X163299010Y-91591855D01*
X163265000Y-91762835D01*
X155698787Y-91762835D01*
X155744740Y-91651895D01*
X155778750Y-91480915D01*
X155778750Y-91306585D01*
X155744740Y-91135605D01*
X155678027Y-90974545D01*
X155581174Y-90829595D01*
X155457905Y-90706326D01*
X155312955Y-90609473D01*
X155151895Y-90542760D01*
X154980915Y-90508750D01*
X154806585Y-90508750D01*
X154635605Y-90542760D01*
X154474545Y-90609473D01*
X154329595Y-90706326D01*
X154206326Y-90829595D01*
X154109473Y-90974545D01*
X154042760Y-91135605D01*
X154016686Y-91266686D01*
X153885605Y-91292760D01*
X153724545Y-91359473D01*
X153579595Y-91456326D01*
X153456326Y-91579595D01*
X153359473Y-91724545D01*
X153292760Y-91885605D01*
X153258750Y-92056585D01*
X136660000Y-92056585D01*
X136660000Y-89912835D01*
X149402500Y-89912835D01*
X149402500Y-90087165D01*
X149436510Y-90258145D01*
X149503223Y-90419205D01*
X149600076Y-90564155D01*
X149723345Y-90687424D01*
X149868295Y-90784277D01*
X150029355Y-90850990D01*
X150200335Y-90885000D01*
X150374665Y-90885000D01*
X150545645Y-90850990D01*
X150706705Y-90784277D01*
X150851655Y-90687424D01*
X150974924Y-90564155D01*
X151071777Y-90419205D01*
X151138490Y-90258145D01*
X151172500Y-90087165D01*
X151172500Y-89912835D01*
X151138490Y-89741855D01*
X151071777Y-89580795D01*
X150974924Y-89435845D01*
X150951914Y-89412835D01*
X194615000Y-89412835D01*
X194615000Y-89587165D01*
X194649010Y-89758145D01*
X194715723Y-89919205D01*
X194812576Y-90064155D01*
X194935845Y-90187424D01*
X195080795Y-90284277D01*
X195241855Y-90350990D01*
X195412835Y-90385000D01*
X195587165Y-90385000D01*
X195758145Y-90350990D01*
X195919205Y-90284277D01*
X196064155Y-90187424D01*
X196187424Y-90064155D01*
X196284277Y-89919205D01*
X196350990Y-89758145D01*
X196385000Y-89587165D01*
X196385000Y-89412835D01*
X196350990Y-89241855D01*
X196284277Y-89080795D01*
X196187424Y-88935845D01*
X196064155Y-88812576D01*
X195919205Y-88715723D01*
X195758145Y-88649010D01*
X195587165Y-88615000D01*
X195412835Y-88615000D01*
X195241855Y-88649010D01*
X195080795Y-88715723D01*
X194935845Y-88812576D01*
X194812576Y-88935845D01*
X194715723Y-89080795D01*
X194649010Y-89241855D01*
X194615000Y-89412835D01*
X150951914Y-89412835D01*
X150851655Y-89312576D01*
X150706705Y-89215723D01*
X150545645Y-89149010D01*
X150374665Y-89115000D01*
X150200335Y-89115000D01*
X150029355Y-89149010D01*
X149868295Y-89215723D01*
X149723345Y-89312576D01*
X149600076Y-89435845D01*
X149503223Y-89580795D01*
X149436510Y-89741855D01*
X149402500Y-89912835D01*
X136660000Y-89912835D01*
X136660000Y-87162835D01*
X142865000Y-87162835D01*
X142865000Y-87337165D01*
X142899010Y-87508145D01*
X142965723Y-87669205D01*
X143062576Y-87814155D01*
X143185845Y-87937424D01*
X143330795Y-88034277D01*
X143491855Y-88100990D01*
X143662835Y-88135000D01*
X143837165Y-88135000D01*
X144008145Y-88100990D01*
X144169205Y-88034277D01*
X144314155Y-87937424D01*
X144338744Y-87912835D01*
X151615000Y-87912835D01*
X151615000Y-88087165D01*
X151649010Y-88258145D01*
X151715723Y-88419205D01*
X151812576Y-88564155D01*
X151935845Y-88687424D01*
X152080795Y-88784277D01*
X152241855Y-88850990D01*
X152412835Y-88885000D01*
X152587165Y-88885000D01*
X152758145Y-88850990D01*
X152919205Y-88784277D01*
X153064155Y-88687424D01*
X153187424Y-88564155D01*
X153284277Y-88419205D01*
X153350990Y-88258145D01*
X153385000Y-88087165D01*
X153385000Y-87912835D01*
X153350990Y-87741855D01*
X153284277Y-87580795D01*
X153187424Y-87435845D01*
X153064155Y-87312576D01*
X152919205Y-87215723D01*
X152758145Y-87149010D01*
X152587165Y-87115000D01*
X152412835Y-87115000D01*
X152241855Y-87149010D01*
X152080795Y-87215723D01*
X151935845Y-87312576D01*
X151812576Y-87435845D01*
X151715723Y-87580795D01*
X151649010Y-87741855D01*
X151615000Y-87912835D01*
X144338744Y-87912835D01*
X144437424Y-87814155D01*
X144534277Y-87669205D01*
X144539947Y-87655515D01*
X144625335Y-87672500D01*
X144799665Y-87672500D01*
X144970645Y-87638490D01*
X145131705Y-87571777D01*
X145276655Y-87474924D01*
X145399924Y-87351655D01*
X145496777Y-87206705D01*
X145563490Y-87045645D01*
X145597500Y-86874665D01*
X145597500Y-86700335D01*
X145563490Y-86529355D01*
X145496777Y-86368295D01*
X145399924Y-86223345D01*
X145276655Y-86100076D01*
X145131705Y-86003223D01*
X144970645Y-85936510D01*
X144851623Y-85912835D01*
X152615000Y-85912835D01*
X152615000Y-86087165D01*
X152649010Y-86258145D01*
X152715723Y-86419205D01*
X152812576Y-86564155D01*
X152935845Y-86687424D01*
X153080795Y-86784277D01*
X153241855Y-86850990D01*
X153412835Y-86885000D01*
X153587165Y-86885000D01*
X153758145Y-86850990D01*
X153919205Y-86784277D01*
X154064155Y-86687424D01*
X154187424Y-86564155D01*
X154284277Y-86419205D01*
X154350990Y-86258145D01*
X154385000Y-86087165D01*
X154385000Y-85912835D01*
X154350990Y-85741855D01*
X154284277Y-85580795D01*
X154187424Y-85435845D01*
X154064155Y-85312576D01*
X153919205Y-85215723D01*
X153758145Y-85149010D01*
X153587165Y-85115000D01*
X153412835Y-85115000D01*
X153241855Y-85149010D01*
X153080795Y-85215723D01*
X152935845Y-85312576D01*
X152812576Y-85435845D01*
X152715723Y-85580795D01*
X152649010Y-85741855D01*
X152615000Y-85912835D01*
X144851623Y-85912835D01*
X144799665Y-85902500D01*
X144625335Y-85902500D01*
X144454355Y-85936510D01*
X144293295Y-86003223D01*
X144148345Y-86100076D01*
X144025076Y-86223345D01*
X143928223Y-86368295D01*
X143922553Y-86381985D01*
X143837165Y-86365000D01*
X143662835Y-86365000D01*
X143491855Y-86399010D01*
X143330795Y-86465723D01*
X143185845Y-86562576D01*
X143062576Y-86685845D01*
X142965723Y-86830795D01*
X142899010Y-86991855D01*
X142865000Y-87162835D01*
X136660000Y-87162835D01*
X136660000Y-84388212D01*
X201865000Y-84388212D01*
X201865000Y-84611788D01*
X201908617Y-84831067D01*
X201994176Y-85037624D01*
X202118388Y-85223520D01*
X202144868Y-85250000D01*
X202118388Y-85276480D01*
X201994176Y-85462376D01*
X201908617Y-85668933D01*
X201865000Y-85888212D01*
X201865000Y-86111788D01*
X201908617Y-86331067D01*
X201994176Y-86537624D01*
X202118388Y-86723520D01*
X202276480Y-86881612D01*
X202462376Y-87005824D01*
X202668933Y-87091383D01*
X202888212Y-87135000D01*
X203111788Y-87135000D01*
X203331067Y-87091383D01*
X203537624Y-87005824D01*
X203723520Y-86881612D01*
X203750000Y-86855132D01*
X203776480Y-86881612D01*
X203962376Y-87005824D01*
X204168933Y-87091383D01*
X204388212Y-87135000D01*
X204611788Y-87135000D01*
X204831067Y-87091383D01*
X205037624Y-87005824D01*
X205223520Y-86881612D01*
X205381612Y-86723520D01*
X205505824Y-86537624D01*
X205591383Y-86331067D01*
X205635000Y-86111788D01*
X205635000Y-85888212D01*
X205591383Y-85668933D01*
X205505824Y-85462376D01*
X205381612Y-85276480D01*
X205355132Y-85250000D01*
X205381612Y-85223520D01*
X205505824Y-85037624D01*
X205591383Y-84831067D01*
X205635000Y-84611788D01*
X205635000Y-84388212D01*
X205591383Y-84168933D01*
X205505824Y-83962376D01*
X205381612Y-83776480D01*
X205223520Y-83618388D01*
X205037624Y-83494176D01*
X204831067Y-83408617D01*
X204611788Y-83365000D01*
X204388212Y-83365000D01*
X204168933Y-83408617D01*
X203962376Y-83494176D01*
X203776480Y-83618388D01*
X203750000Y-83644868D01*
X203723520Y-83618388D01*
X203537624Y-83494176D01*
X203331067Y-83408617D01*
X203111788Y-83365000D01*
X202888212Y-83365000D01*
X202668933Y-83408617D01*
X202462376Y-83494176D01*
X202276480Y-83618388D01*
X202118388Y-83776480D01*
X201994176Y-83962376D01*
X201908617Y-84168933D01*
X201865000Y-84388212D01*
X136660000Y-84388212D01*
X136660000Y-73357315D01*
X136677923Y-73314045D01*
X136737024Y-73237024D01*
X136814045Y-73177923D01*
X136857315Y-73160000D01*
X245142685Y-73160000D01*
X245185955Y-73177923D01*
M02*
